// Auto-generated from MIDI — do not edit manually
// Song: mozart-sym40
#pragma once
#include "../notes.h"

static const Step song_mozart_symphony40_1_piano_solo[] = {
    {NOTE_AS3, MS_32},  // 94ms
    {NOTE_D4, MS_32},  // 94ms
    {NOTE_AS3, MS_32},  // 94ms
    {NOTE_D4, MS_32},  // 94ms
    {NOTE_AS3, MS_32},  // 94ms
    {NOTE_D4, MS_32},  // 94ms
    {NOTE_DS5, MS_32},  // 94ms
    {NOTE_D5, MS_32},  // 94ms
    {NOTE_D5, MS_16},  // 187ms
    {NOTE_D4, MS_32},  // 94ms
    {NOTE_DS5, MS_32},  // 94ms
    {NOTE_D5, MS_32},  // 94ms
    {NOTE_D5, MS_16},  // 187ms
    {NOTE_D4, MS_32},  // 94ms
    {NOTE_DS5, MS_32},  // 94ms
    {NOTE_D5, MS_32},  // 94ms
    {NOTE_D5, MS_16},  // 187ms
    {NOTE_D4, MS_32},  // 94ms
    {NOTE_AS5, MS_16},  // 187ms
    {NOTE_D4, MS_32},  // 94ms
    {NOTE_AS3, MS_32},  // 94ms
    {NOTE_D4, MS_32},  // 94ms
    {NOTE_AS5, MS_32},  // 94ms
    {NOTE_A5, MS_32},  // 94ms
    {NOTE_G5, MS_16},  // 187ms
    {NOTE_D4, MS_32},  // 94ms
    {NOTE_G5, MS_32},  // 94ms
    {NOTE_F5, MS_32},  // 94ms
    {NOTE_DS5, MS_16},  // 187ms
    {NOTE_D4, MS_32},  // 94ms
    {NOTE_DS5, MS_32},  // 94ms
    {NOTE_D5, MS_32},  // 94ms
    {NOTE_C5, MS_16},  // 187ms
    {NOTE_DS4, MS_32},  // 94ms
    {NOTE_C5, MS_16},  // 187ms
    {NOTE_DS4, MS_32},  // 94ms
    {NOTE_A3, MS_32},  // 94ms
    {NOTE_DS4, MS_32},  // 94ms
    {NOTE_D5, MS_32},  // 94ms
    {NOTE_C5, MS_32},  // 94ms
    {NOTE_C5, MS_16},  // 187ms
    {NOTE_DS4, MS_32},  // 94ms
    {NOTE_D5, MS_32},  // 94ms
    {NOTE_C5, MS_32},  // 94ms
    {NOTE_C5, MS_16},  // 187ms
    {NOTE_DS4, MS_32},  // 94ms
    {NOTE_D5, MS_32},  // 94ms
    {NOTE_C5, MS_32},  // 94ms
    {NOTE_C5, MS_16},  // 187ms
    {NOTE_D4, MS_32},  // 94ms
    {NOTE_A5, MS_16},  // 187ms
    {NOTE_D4, MS_32},  // 94ms
    {NOTE_A3, MS_32},  // 94ms
    {NOTE_D4, MS_32},  // 94ms
    {NOTE_A5, MS_32},  // 94ms
    {NOTE_G5, MS_32},  // 94ms
    {NOTE_FS5, MS_16},  // 187ms
    {NOTE_D4, MS_32},  // 94ms
    {NOTE_FS5, MS_32},  // 94ms
    {NOTE_DS5, MS_32},  // 94ms
    {NOTE_D5, MS_16},  // 187ms
    {NOTE_D4, MS_32},  // 94ms
    {NOTE_D5, MS_32},  // 94ms
    {NOTE_C5, MS_32},  // 94ms
    {NOTE_AS4, MS_16},  // 187ms
    {NOTE_D4, MS_32},  // 94ms
    {NOTE_AS4, MS_16},  // 187ms
    {NOTE_D4, MS_32},  // 94ms
    {NOTE_G3, MS_DQ},  // 562ms
    {NOTE_D4, MS_32},  // 94ms
    {NOTE_AS5, MS_32},  // 94ms
    {NOTE_A5, MS_32},  // 94ms
    {NOTE_A5, MS_16},  // 187ms
    {NOTE_A3, MS_32},  // 94ms
    {NOTE_C6, MS_16},  // 187ms
    {NOTE_A3, MS_32},  // 94ms
    {NOTE_FS5, MS_16},  // 187ms
    {NOTE_A3, MS_32},  // 94ms
    {NOTE_A5, MS_16},  // 187ms
    {NOTE_A3, MS_32},  // 94ms
    {NOTE_G5, MS_16},  // 187ms
    {NOTE_AS3, MS_32},  // 94ms
    {NOTE_D5, MS_16},  // 187ms
    {NOTE_AS3, MS_32},  // 94ms
    {NOTE_D3, MS_32},  // 94ms
    {NOTE_AS3, MS_32},  // 94ms
    {NOTE_AS5, MS_32},  // 94ms
    {NOTE_A5, MS_32},  // 94ms
    {NOTE_A5, MS_16},  // 187ms
    {NOTE_A3, MS_32},  // 94ms
    {NOTE_C6, MS_16},  // 187ms
    {NOTE_A3, MS_32},  // 94ms
    {NOTE_FS5, MS_16},  // 187ms
    {NOTE_A3, MS_32},  // 94ms
    {NOTE_A5, MS_16},  // 187ms
    {NOTE_A3, MS_32},  // 94ms
    {NOTE_G5, MS_16},  // 187ms
    {NOTE_AS5, MS_16},  // 187ms
    {NOTE_A5, MS_32},  // 94ms
    {NOTE_G5, MS_32},  // 94ms
    {NOTE_F5, MS_32},  // 94ms
    {NOTE_DS5, MS_32},  // 94ms
    {NOTE_D5, MS_DH},  // 1125ms
    {NOTE_FS5, MS_16},  // 187ms
    {NOTE_G5, MS_16},  // 187ms
    {NOTE_A5, MS_16},  // 187ms
    {NOTE_AS5, MS_16},  // 187ms
    {NOTE_C6, MS_32},  // 94ms
    {NOTE_AS5, MS_32},  // 94ms
    {NOTE_A5, MS_16},  // 187ms
    {NOTE_G5, MS_16},  // 187ms
    {NOTE_FS5, MS_16},  // 187ms
    {NOTE_REST, MS_Q},  // 375ms
    {NOTE_CS6, MS_DQ},  // 562ms
    {NOTE_D3, MS_32},  // 94ms
    {NOTE_D3, MS_32},  // 94ms
    {NOTE_D6, MS_16},  // 187ms
    {NOTE_REST, MS_Q},  // 375ms
    {NOTE_CS6, MS_DQ},  // 562ms
    {NOTE_D3, MS_32},  // 94ms
    {NOTE_D3, MS_32},  // 94ms
    {NOTE_D6, MS_16},  // 187ms
    {NOTE_REST, MS_Q},  // 375ms
    {NOTE_CS6, MS_DQ},  // 562ms
    {NOTE_D3, MS_32},  // 94ms
    {NOTE_D3, MS_32},  // 94ms
    {NOTE_D6, MS_16},  // 187ms
    {NOTE_REST, MS_64},  // 47ms
    {NOTE_CS6, MS_16},  // 187ms
    {NOTE_D6, MS_16},  // 187ms
    {NOTE_REST, MS_64},  // 47ms
    {NOTE_CS6, MS_16},  // 187ms
    {NOTE_D6, MS_Q},  // 375ms
    {NOTE_REST, MS_32},  // 94ms
    {NOTE_C4, MS_DQ},  // 562ms
    {NOTE_DS5, MS_32},  // 94ms
    {NOTE_D5, MS_32},  // 94ms
    {NOTE_D5, MS_16},  // 187ms
    {NOTE_REST, MS_32},  // 94ms
    {NOTE_DS5, MS_32},  // 94ms
    {NOTE_D5, MS_32},  // 94ms
    {NOTE_D5, MS_16},  // 187ms
    {NOTE_REST, MS_32},  // 94ms
    {NOTE_DS5, MS_32},  // 94ms
    {NOTE_D5, MS_32},  // 94ms
    {NOTE_D5, MS_DH},  // 1125ms
    {NOTE_D4, MS_32},  // 94ms
    {NOTE_AS5, MS_16},  // 187ms
    {NOTE_D4, MS_32},  // 94ms
    {NOTE_AS3, MS_32},  // 94ms
    {NOTE_D4, MS_32},  // 94ms
    {NOTE_AS5, MS_32},  // 94ms
    {NOTE_A5, MS_32},  // 94ms
    {NOTE_G5, MS_16},  // 187ms
    {NOTE_D4, MS_32},  // 94ms
    {NOTE_G5, MS_32},  // 94ms
    {NOTE_F5, MS_32},  // 94ms
    {NOTE_DS5, MS_16},  // 187ms
    {NOTE_D4, MS_32},  // 94ms
    {NOTE_DS5, MS_32},  // 94ms
    {NOTE_D5, MS_32},  // 94ms
    {NOTE_C5, MS_16},  // 187ms
    {NOTE_C4, MS_32},  // 94ms
    {NOTE_C5, MS_16},  // 187ms
    {NOTE_C4, MS_32},  // 94ms
    {NOTE_G3, MS_32},  // 94ms
    {NOTE_C4, MS_32},  // 94ms
    {NOTE_F5, MS_32},  // 94ms
    {NOTE_DS5, MS_32},  // 94ms
    {NOTE_DS5, MS_16},  // 187ms
    {NOTE_C4, MS_32},  // 94ms
    {NOTE_F5, MS_32},  // 94ms
    {NOTE_DS5, MS_32},  // 94ms
    {NOTE_DS5, MS_16},  // 187ms
    {NOTE_C4, MS_32},  // 94ms
    {NOTE_F5, MS_32},  // 94ms
    {NOTE_DS5, MS_32},  // 94ms
    {NOTE_DS5, MS_DH},  // 1125ms
    {NOTE_F4, MS_32},  // 94ms
    {NOTE_C6, MS_16},  // 187ms
    {NOTE_F4, MS_32},  // 94ms
    {NOTE_A3, MS_32},  // 94ms
    {NOTE_F4, MS_32},  // 94ms
    {NOTE_C6, MS_32},  // 94ms
    {NOTE_AS5, MS_32},  // 94ms
    {NOTE_A5, MS_16},  // 187ms
    {NOTE_F4, MS_32},  // 94ms
    {NOTE_A5, MS_32},  // 94ms
    {NOTE_G5, MS_32},  // 94ms
    {NOTE_F5, MS_16},  // 187ms
    {NOTE_F4, MS_32},  // 94ms
    {NOTE_F5, MS_32},  // 94ms
    {NOTE_DS5, MS_32},  // 94ms
    {NOTE_AS5, MS_DH},  // 1125ms
    {NOTE_D3, MS_32},  // 94ms
    {NOTE_AS2, MS_32},  // 94ms
    {NOTE_D3, MS_32},  // 94ms
    {NOTE_AS2, MS_32},  // 94ms
    {NOTE_D3, MS_32},  // 94ms
    {NOTE_AS2, MS_32},  // 94ms
    {NOTE_D3, MS_32},  // 94ms
    {NOTE_F6, MS_H},  // 750ms
    {NOTE_C3, MS_32},  // 94ms
    {NOTE_A2, MS_32},  // 94ms
    {NOTE_C3, MS_32},  // 94ms
    {NOTE_A2, MS_32},  // 94ms
    {NOTE_C3, MS_32},  // 94ms
    {NOTE_A2, MS_32},  // 94ms
    {NOTE_F5, MS_32},  // 94ms
    {NOTE_DS5, MS_16},  // 187ms
    {NOTE_AS2, MS_32},  // 94ms
    {NOTE_G5, MS_16},  // 187ms
    {NOTE_AS2, MS_32},  // 94ms
    {NOTE_AS5, MS_16},  // 187ms
    {NOTE_AS2, MS_32},  // 94ms
    {NOTE_G2, MS_32},  // 94ms
    {NOTE_AS2, MS_32},  // 94ms
    {NOTE_D5, MS_16},  // 187ms
    {NOTE_AS2, MS_32},  // 94ms
    {NOTE_F5, MS_16},  // 187ms
    {NOTE_AS2, MS_32},  // 94ms
    {NOTE_AS5, MS_16},  // 187ms
    {NOTE_AS2, MS_32},  // 94ms
    {NOTE_F2, MS_32},  // 94ms
    {NOTE_D5, MS_32},  // 94ms
    {NOTE_C5, MS_H},  // 750ms
    {NOTE_G3, MS_32},  // 94ms
    {NOTE_DS5, MS_16},  // 187ms
    {NOTE_G3, MS_32},  // 94ms
    {NOTE_G5, MS_16},  // 187ms
    {NOTE_G3, MS_32},  // 94ms
    {NOTE_C5, MS_16},  // 187ms
    {NOTE_G3, MS_32},  // 94ms
    {NOTE_AS4, MS_H},  // 750ms
    {NOTE_F3, MS_32},  // 94ms
    {NOTE_D5, MS_16},  // 187ms
    {NOTE_F3, MS_32},  // 94ms
    {NOTE_F5, MS_16},  // 187ms
    {NOTE_F3, MS_32},  // 94ms
    {NOTE_D3, MS_32},  // 94ms
    {NOTE_F5, MS_32},  // 94ms
    {NOTE_E5, MS_32},  // 94ms
    {NOTE_F5, MS_32},  // 94ms
    {NOTE_G5, MS_32},  // 94ms
    {NOTE_A5, MS_32},  // 94ms
    {NOTE_AS5, MS_32},  // 94ms
    {NOTE_C6, MS_32},  // 94ms
    {NOTE_CS6, MS_32},  // 94ms
    {NOTE_F5, MS_32},  // 94ms
    {NOTE_E5, MS_32},  // 94ms
    {NOTE_F5, MS_32},  // 94ms
    {NOTE_G5, MS_32},  // 94ms
    {NOTE_A5, MS_32},  // 94ms
    {NOTE_AS5, MS_32},  // 94ms
    {NOTE_C6, MS_32},  // 94ms
    {NOTE_CS6, MS_32},  // 94ms
    {NOTE_F5, MS_32},  // 94ms
    {NOTE_E5, MS_32},  // 94ms
    {NOTE_F5, MS_32},  // 94ms
    {NOTE_G5, MS_32},  // 94ms
    {NOTE_A5, MS_32},  // 94ms
    {NOTE_AS5, MS_32},  // 94ms
    {NOTE_C6, MS_32},  // 94ms
    {NOTE_CS6, MS_32},  // 94ms
    {NOTE_F5, MS_32},  // 94ms
    {NOTE_E5, MS_32},  // 94ms
    {NOTE_F5, MS_32},  // 94ms
    {NOTE_G5, MS_32},  // 94ms
    {NOTE_A5, MS_32},  // 94ms
    {NOTE_AS5, MS_32},  // 94ms
    {NOTE_C6, MS_32},  // 94ms
    {NOTE_CS6, MS_32},  // 94ms
    {NOTE_E5, MS_32},  // 94ms
    {NOTE_F5, MS_DQ},  // 562ms
    {NOTE_F4, MS_32},  // 94ms
    {NOTE_C4, MS_32},  // 94ms
    {NOTE_F4, MS_32},  // 94ms
    {NOTE_C6, MS_16},  // 187ms
    {NOTE_F4, MS_32},  // 94ms
    {NOTE_A5, MS_16},  // 187ms
    {NOTE_F4, MS_32},  // 94ms
    {NOTE_CS6, MS_DQ},  // 562ms
    {NOTE_F4, MS_32},  // 94ms
    {NOTE_CS4, MS_32},  // 94ms
    {NOTE_F4, MS_32},  // 94ms
    {NOTE_E5, MS_16},  // 187ms
    {NOTE_E4, MS_32},  // 94ms
    {NOTE_G5, MS_16},  // 187ms
    {NOTE_E4, MS_32},  // 94ms
    {NOTE_F5, MS_DQ},  // 562ms
    {NOTE_F4, MS_32},  // 94ms
    {NOTE_C4, MS_32},  // 94ms
    {NOTE_F4, MS_32},  // 94ms
    {NOTE_C6, MS_32},  // 94ms
    {NOTE_A5, MS_32},  // 94ms
    {NOTE_C6, MS_32},  // 94ms
    {NOTE_A5, MS_32},  // 94ms
    {NOTE_CS6, MS_32},  // 94ms
    {NOTE_AS5, MS_32},  // 94ms
    {NOTE_CS6, MS_32},  // 94ms
    {NOTE_AS5, MS_32},  // 94ms
    {NOTE_E6, MS_32},  // 94ms
    {NOTE_G5, MS_32},  // 94ms
    {NOTE_E6, MS_32},  // 94ms
    {NOTE_G5, MS_32},  // 94ms
    {NOTE_F6, MS_16},  // 187ms
    {NOTE_REST, MS_16},  // 187ms
    {NOTE_F4, MS_16},  // 187ms
    {NOTE_REST, MS_W},  // 1500ms
    {NOTE_F5, MS_H},  // 750ms
    {NOTE_E5, MS_16},  // 187ms
    {NOTE_DS5, MS_H},  // 750ms
    {NOTE_F5, MS_64},  // 47ms
    {NOTE_REST, MS_64},  // 47ms
    {NOTE_DS5, MS_64},  // 47ms
    {NOTE_D5, MS_64},  // 47ms
    {NOTE_C5, MS_64},  // 47ms
    {NOTE_REST, MS_64},  // 47ms
    {NOTE_AS4, MS_32},  // 94ms
    {NOTE_REST, MS_32},  // 94ms
    {NOTE_AS4, MS_16},  // 187ms
    {NOTE_AS4, MS_16},  // 187ms
    {NOTE_C5, MS_16},  // 187ms
    {NOTE_D5, MS_Q},  // 375ms
    {NOTE_DS5, MS_32},  // 94ms
    {NOTE_C5, MS_16},  // 187ms
    {NOTE_REST, MS_16},  // 187ms
    {NOTE_G5, MS_H},  // 750ms
    {NOTE_FS5, MS_16},  // 187ms
    {NOTE_F5, MS_16},  // 187ms
    {NOTE_E5, MS_16},  // 187ms
    {NOTE_DS5, MS_16},  // 187ms
    {NOTE_D5, MS_16},  // 187ms
    {NOTE_C5, MS_16},  // 187ms
    {NOTE_REST, MS_64},  // 47ms
    {NOTE_DS5, MS_DQ},  // 562ms
    {NOTE_C4, MS_16},  // 187ms
    {NOTE_A4, MS_16},  // 187ms
    {NOTE_AS4, MS_32},  // 94ms
    {NOTE_A4, MS_32},  // 94ms
    {NOTE_C5, MS_32},  // 94ms
    {NOTE_AS4, MS_32},  // 94ms
    {NOTE_D5, MS_32},  // 94ms
    {NOTE_C5, MS_32},  // 94ms
    {NOTE_DS5, MS_32},  // 94ms
    {NOTE_D5, MS_32},  // 94ms
    {NOTE_F6, MS_H},  // 750ms
    {NOTE_E6, MS_16},  // 187ms
    {NOTE_DS6, MS_16},  // 187ms
    {NOTE_REST, MS_DQ},  // 562ms
    {NOTE_F5, MS_64},  // 47ms
    {NOTE_DS5, MS_64},  // 47ms
    {NOTE_REST, MS_64},  // 47ms
    {NOTE_D5, MS_64},  // 47ms
    {NOTE_C5, MS_64},  // 47ms
    {NOTE_AS4, MS_32},  // 94ms
    {NOTE_REST, MS_16},  // 187ms
    {NOTE_AS5, MS_16},  // 187ms
    {NOTE_AS5, MS_16},  // 187ms
    {NOTE_C6, MS_16},  // 187ms
    {NOTE_D6, MS_Q},  // 375ms
    {NOTE_DS6, MS_32},  // 94ms
    {NOTE_C6, MS_16},  // 187ms
    {NOTE_REST, MS_Q},  // 375ms
    {NOTE_G5, MS_H},  // 750ms
    {NOTE_FS5, MS_16},  // 187ms
    {NOTE_F5, MS_16},  // 187ms
    {NOTE_E5, MS_16},  // 187ms
    {NOTE_DS5, MS_16},  // 187ms
    {NOTE_D5, MS_16},  // 187ms
    {NOTE_REST, MS_64},  // 47ms
    {NOTE_CS5, MS_H},  // 750ms
    {NOTE_AS3, MS_32},  // 94ms
    {NOTE_G5, MS_DQ},  // 562ms
    {NOTE_AS3, MS_32},  // 94ms
    {NOTE_CS4, MS_32},  // 94ms
    {NOTE_AS3, MS_32},  // 94ms
    {NOTE_GS5, MS_16},  // 187ms
    {NOTE_GS3, MS_32},  // 94ms
    {NOTE_CS5, MS_H},  // 750ms
    {NOTE_AS3, MS_32},  // 94ms
    {NOTE_G5, MS_DQ},  // 562ms
    {NOTE_AS3, MS_32},  // 94ms
    {NOTE_CS4, MS_32},  // 94ms
    {NOTE_AS3, MS_32},  // 94ms
    {NOTE_GS5, MS_16},  // 187ms
    {NOTE_GS3, MS_32},  // 94ms
    {NOTE_CS5, MS_H},  // 750ms
    {NOTE_AS3, MS_32},  // 94ms
    {NOTE_G5, MS_DQ},  // 562ms
    {NOTE_AS3, MS_32},  // 94ms
    {NOTE_CS4, MS_32},  // 94ms
    {NOTE_AS3, MS_32},  // 94ms
    {NOTE_GS5, MS_16},  // 187ms
    {NOTE_GS3, MS_32},  // 94ms
    {NOTE_CS5, MS_H},  // 750ms
    {NOTE_AS3, MS_32},  // 94ms
    {NOTE_G5, MS_DQ},  // 562ms
    {NOTE_AS3, MS_32},  // 94ms
    {NOTE_CS4, MS_32},  // 94ms
    {NOTE_AS3, MS_32},  // 94ms
    {NOTE_GS5, MS_16},  // 187ms
    {NOTE_GS3, MS_32},  // 94ms
    {NOTE_G5, MS_32},  // 94ms
    {NOTE_G5, MS_16},  // 187ms
    {NOTE_CS4, MS_16},  // 187ms
    {NOTE_G5, MS_16},  // 187ms
    {NOTE_CS4, MS_16},  // 187ms
    {NOTE_G5, MS_16},  // 187ms
    {NOTE_CS4, MS_16},  // 187ms
    {NOTE_G5, MS_32},  // 94ms
    {NOTE_G6, MS_32},  // 94ms
    {NOTE_G6, MS_16},  // 187ms
    {NOTE_CS4, MS_16},  // 187ms
    {NOTE_G6, MS_16},  // 187ms
    {NOTE_CS4, MS_16},  // 187ms
    {NOTE_G6, MS_16},  // 187ms
    {NOTE_CS4, MS_16},  // 187ms
    {NOTE_G6, MS_32},  // 94ms
    {NOTE_F6, MS_16},  // 187ms
    {NOTE_AS2, MS_64},  // 47ms
    {NOTE_D3, MS_64},  // 47ms
    {NOTE_REST, MS_64},  // 47ms
    {NOTE_F3, MS_64},  // 47ms
    {NOTE_F6, MS_DQ},  // 562ms
    {NOTE_AS2, MS_64},  // 47ms
    {NOTE_REST, MS_64},  // 47ms
    {NOTE_D3, MS_64},  // 47ms
    {NOTE_F3, MS_64},  // 47ms
    {NOTE_F2, MS_16},  // 187ms
    {NOTE_AS2, MS_64},  // 47ms
    {NOTE_D3, MS_64},  // 47ms
    {NOTE_REST, MS_64},  // 47ms
    {NOTE_F3, MS_64},  // 47ms
    {NOTE_F6, MS_16},  // 187ms
    {NOTE_AS2, MS_64},  // 47ms
    {NOTE_REST, MS_64},  // 47ms
    {NOTE_D3, MS_64},  // 47ms
    {NOTE_F3, MS_64},  // 47ms
    {NOTE_A5, MS_32},  // 94ms
    {NOTE_AS5, MS_32},  // 94ms
    {NOTE_DS3, MS_64},  // 47ms
    {NOTE_A5, MS_32},  // 94ms
    {NOTE_AS5, MS_32},  // 94ms
    {NOTE_C3, MS_64},  // 47ms
    {NOTE_A5, MS_64},  // 47ms
    {NOTE_AS5, MS_64},  // 47ms
    {NOTE_F3, MS_64},  // 47ms
    {NOTE_A5, MS_64},  // 47ms
    {NOTE_REST, MS_64},  // 47ms
    {NOTE_AS5, MS_64},  // 47ms
    {NOTE_DS3, MS_64},  // 47ms
    {NOTE_A5, MS_64},  // 47ms
    {NOTE_AS5, MS_32},  // 94ms
    {NOTE_F2, MS_16},  // 187ms
    {NOTE_A5, MS_32},  // 94ms
    {NOTE_DS3, MS_64},  // 47ms
    {NOTE_G5, MS_32},  // 94ms
    {NOTE_A5, MS_64},  // 47ms
    {NOTE_AS5, MS_32},  // 94ms
    {NOTE_REST, MS_16},  // 187ms
    {NOTE_D4, MS_Q},  // 375ms
    {NOTE_D4, MS_32},  // 94ms
    {NOTE_DS4, MS_32},  // 94ms
    {NOTE_DS4, MS_32},  // 94ms
    {NOTE_E4, MS_32},  // 94ms
    {NOTE_REST, MS_64},  // 47ms
    {NOTE_E4, MS_32},  // 94ms
    {NOTE_F4, MS_32},  // 94ms
    {NOTE_REST, MS_64},  // 47ms
    {NOTE_F4, MS_32},  // 94ms
    {NOTE_FS4, MS_32},  // 94ms
    {NOTE_REST, MS_64},  // 47ms
    {NOTE_FS4, MS_32},  // 94ms
    {NOTE_G4, MS_32},  // 94ms
    {NOTE_REST, MS_64},  // 47ms
    {NOTE_G4, MS_32},  // 94ms
    {NOTE_F5, MS_16},  // 187ms
    {NOTE_REST, MS_16},  // 187ms
    {NOTE_GS3, MS_64},  // 47ms
    {NOTE_REST, MS_64},  // 47ms
    {NOTE_G5, MS_16},  // 187ms
    {NOTE_REST, MS_16},  // 187ms
    {NOTE_G3, MS_64},  // 47ms
    {NOTE_REST, MS_64},  // 47ms
    {NOTE_C6, MS_16},  // 187ms
    {NOTE_REST, MS_16},  // 187ms
    {NOTE_DS4, MS_64},  // 47ms
    {NOTE_REST, MS_64},  // 47ms
    {NOTE_D6, MS_16},  // 187ms
    {NOTE_REST, MS_16},  // 187ms
    {NOTE_D4, MS_64},  // 47ms
    {NOTE_G6, MS_H},  // 750ms
    {NOTE_F6, MS_32},  // 94ms
    {NOTE_REST, MS_64},  // 47ms
    {NOTE_DS6, MS_32},  // 94ms
    {NOTE_REST, MS_64},  // 47ms
    {NOTE_D6, MS_32},  // 94ms
    {NOTE_C6, MS_32},  // 94ms
    {NOTE_REST, MS_64},  // 47ms
    {NOTE_AS5, MS_32},  // 94ms
    {NOTE_REST, MS_64},  // 47ms
    {NOTE_A5, MS_32},  // 94ms
    {NOTE_G5, MS_32},  // 94ms
    {NOTE_REST, MS_64},  // 47ms
    {NOTE_F5, MS_32},  // 94ms
    {NOTE_REST, MS_64},  // 47ms
    {NOTE_DS5, MS_32},  // 94ms
    {NOTE_REST, MS_64},  // 47ms
    {NOTE_D5, MS_32},  // 94ms
    {NOTE_C5, MS_32},  // 94ms
    {NOTE_REST, MS_64},  // 47ms
    {NOTE_AS4, MS_32},  // 94ms
    {NOTE_F3, MS_32},  // 94ms
    {NOTE_D4, MS_32},  // 94ms
    {NOTE_F3, MS_32},  // 94ms
    {NOTE_AS5, MS_DH},  // 1125ms
    {NOTE_F3, MS_32},  // 94ms
    {NOTE_G5, MS_32},  // 94ms
    {NOTE_F5, MS_32},  // 94ms
    {NOTE_F5, MS_16},  // 187ms
    {NOTE_F3, MS_32},  // 94ms
    {NOTE_G5, MS_16},  // 187ms
    {NOTE_F5, MS_32},  // 94ms
    {NOTE_A5, MS_32},  // 94ms
    {NOTE_F3, MS_32},  // 94ms
    {NOTE_G4, MS_32},  // 94ms
    {NOTE_F4, MS_32},  // 94ms
    {NOTE_F4, MS_16},  // 187ms
    {NOTE_F3, MS_16},  // 187ms
    {NOTE_G4, MS_32},  // 94ms
    {NOTE_F4, MS_32},  // 94ms
    {NOTE_AS5, MS_DH},  // 1125ms
    {NOTE_F3, MS_32},  // 94ms
    {NOTE_G5, MS_32},  // 94ms
    {NOTE_F5, MS_32},  // 94ms
    {NOTE_F5, MS_16},  // 187ms
    {NOTE_F3, MS_32},  // 94ms
    {NOTE_G5, MS_16},  // 187ms
    {NOTE_F5, MS_32},  // 94ms
    {NOTE_A5, MS_32},  // 94ms
    {NOTE_F3, MS_32},  // 94ms
    {NOTE_G4, MS_32},  // 94ms
    {NOTE_F4, MS_32},  // 94ms
    {NOTE_F4, MS_16},  // 187ms
    {NOTE_F3, MS_16},  // 187ms
    {NOTE_G4, MS_32},  // 94ms
    {NOTE_F4, MS_32},  // 94ms
    {NOTE_F4, MS_32},  // 94ms
    {NOTE_F3, MS_32},  // 94ms
    {NOTE_DS6, MS_32},  // 94ms
    {NOTE_D6, MS_32},  // 94ms
    {NOTE_D6, MS_16},  // 187ms
    {NOTE_D3, MS_32},  // 94ms
    {NOTE_DS6, MS_32},  // 94ms
    {NOTE_D6, MS_32},  // 94ms
    {NOTE_D6, MS_16},  // 187ms
    {NOTE_D3, MS_32},  // 94ms
    {NOTE_DS6, MS_32},  // 94ms
    {NOTE_D6, MS_32},  // 94ms
    {NOTE_D6, MS_DQ},  // 562ms
    {NOTE_D4, MS_32},  // 94ms
    {NOTE_AS3, MS_32},  // 94ms
    {NOTE_D4, MS_32},  // 94ms
    {NOTE_DS6, MS_Q},  // 375ms
    {NOTE_DS4, MS_32},  // 94ms
    {NOTE_C4, MS_32},  // 94ms
    {NOTE_C6, MS_32},  // 94ms
    {NOTE_AS5, MS_Q},  // 375ms
    {NOTE_F4, MS_32},  // 94ms
    {NOTE_D4, MS_32},  // 94ms
    {NOTE_D6, MS_32},  // 94ms
    {NOTE_C6, MS_Q},  // 375ms
    {NOTE_F4, MS_32},  // 94ms
    {NOTE_DS4, MS_32},  // 94ms
    {NOTE_A5, MS_32},  // 94ms
    {NOTE_AS5, MS_32},  // 94ms
    {NOTE_F4, MS_32},  // 94ms
    {NOTE_D4, MS_32},  // 94ms
    {NOTE_F4, MS_32},  // 94ms
    {NOTE_D4, MS_32},  // 94ms
    {NOTE_F4, MS_32},  // 94ms
    {NOTE_G5, MS_32},  // 94ms
    {NOTE_F5, MS_32},  // 94ms
    {NOTE_F5, MS_16},  // 187ms
    {NOTE_DS4, MS_32},  // 94ms
    {NOTE_G5, MS_32},  // 94ms
    {NOTE_F5, MS_32},  // 94ms
    {NOTE_DS6, MS_DH},  // 1125ms
    {NOTE_F4, MS_32},  // 94ms
    {NOTE_G5, MS_32},  // 94ms
    {NOTE_F5, MS_32},  // 94ms
    {NOTE_F5, MS_16},  // 187ms
    {NOTE_F4, MS_32},  // 94ms
    {NOTE_G5, MS_16},  // 187ms
    {NOTE_F5, MS_32},  // 94ms
    {NOTE_D6, MS_32},  // 94ms
    {NOTE_F4, MS_32},  // 94ms
    {NOTE_G5, MS_32},  // 94ms
    {NOTE_F5, MS_32},  // 94ms
    {NOTE_F5, MS_16},  // 187ms
    {NOTE_DS4, MS_16},  // 187ms
    {NOTE_G5, MS_32},  // 94ms
    {NOTE_F5, MS_32},  // 94ms
    {NOTE_F5, MS_32},  // 94ms
    {NOTE_F4, MS_32},  // 94ms
    {NOTE_G5, MS_32},  // 94ms
    {NOTE_F5, MS_32},  // 94ms
    {NOTE_F5, MS_16},  // 187ms
    {NOTE_F4, MS_32},  // 94ms
    {NOTE_G5, MS_32},  // 94ms
    {NOTE_F5, MS_32},  // 94ms
    {NOTE_F5, MS_16},  // 187ms
    {NOTE_F4, MS_32},  // 94ms
    {NOTE_DS6, MS_32},  // 94ms
    {NOTE_D6, MS_32},  // 94ms
    {NOTE_D6, MS_16},  // 187ms
    {NOTE_D4, MS_32},  // 94ms
    {NOTE_DS6, MS_32},  // 94ms
    {NOTE_D6, MS_32},  // 94ms
    {NOTE_D6, MS_16},  // 187ms
    {NOTE_D4, MS_32},  // 94ms
    {NOTE_DS6, MS_32},  // 94ms
    {NOTE_D6, MS_32},  // 94ms
    {NOTE_D6, MS_DQ},  // 562ms
    {NOTE_D4, MS_32},  // 94ms
    {NOTE_AS3, MS_32},  // 94ms
    {NOTE_D4, MS_32},  // 94ms
    {NOTE_DS6, MS_Q},  // 375ms
    {NOTE_DS4, MS_32},  // 94ms
    {NOTE_C4, MS_32},  // 94ms
    {NOTE_C6, MS_32},  // 94ms
    {NOTE_AS5, MS_Q},  // 375ms
    {NOTE_F4, MS_32},  // 94ms
    {NOTE_D4, MS_32},  // 94ms
    {NOTE_D6, MS_32},  // 94ms
    {NOTE_C6, MS_Q},  // 375ms
    {NOTE_F4, MS_32},  // 94ms
    {NOTE_DS4, MS_32},  // 94ms
    {NOTE_A5, MS_32},  // 94ms
    {NOTE_AS5, MS_32},  // 94ms
    {NOTE_F5, MS_32},  // 94ms
    {NOTE_D6, MS_32},  // 94ms
    {NOTE_C6, MS_32},  // 94ms
    {NOTE_AS5, MS_32},  // 94ms
    {NOTE_A5, MS_32},  // 94ms
    {NOTE_G5, MS_32},  // 94ms
    {NOTE_F5, MS_32},  // 94ms
    {NOTE_DS5, MS_32},  // 94ms
    {NOTE_D5, MS_32},  // 94ms
    {NOTE_C5, MS_32},  // 94ms
    {NOTE_AS4, MS_32},  // 94ms
    {NOTE_A4, MS_32},  // 94ms
    {NOTE_G4, MS_32},  // 94ms
    {NOTE_F4, MS_32},  // 94ms
    {NOTE_DS4, MS_32},  // 94ms
    {NOTE_D4, MS_32},  // 94ms
    {NOTE_REST, MS_32},  // 94ms
    {NOTE_F5, MS_16},  // 187ms
    {NOTE_REST, MS_32},  // 94ms
    {NOTE_G5, MS_16},  // 187ms
    {NOTE_REST, MS_32},  // 94ms
    {NOTE_A5, MS_16},  // 187ms
    {NOTE_REST, MS_32},  // 94ms
    {NOTE_AS5, MS_32},  // 94ms
    {NOTE_F5, MS_32},  // 94ms
    {NOTE_D6, MS_32},  // 94ms
    {NOTE_C6, MS_32},  // 94ms
    {NOTE_AS5, MS_32},  // 94ms
    {NOTE_A5, MS_32},  // 94ms
    {NOTE_G5, MS_32},  // 94ms
    {NOTE_F5, MS_32},  // 94ms
    {NOTE_DS5, MS_32},  // 94ms
    {NOTE_D5, MS_32},  // 94ms
    {NOTE_C5, MS_32},  // 94ms
    {NOTE_AS4, MS_32},  // 94ms
    {NOTE_A4, MS_32},  // 94ms
    {NOTE_C5, MS_32},  // 94ms
    {NOTE_F5, MS_32},  // 94ms
    {NOTE_DS5, MS_32},  // 94ms
    {NOTE_D5, MS_32},  // 94ms
    {NOTE_REST, MS_16},  // 187ms
    {NOTE_F5, MS_16},  // 187ms
    {NOTE_REST, MS_32},  // 94ms
    {NOTE_G5, MS_16},  // 187ms
    {NOTE_REST, MS_32},  // 94ms
    {NOTE_A5, MS_16},  // 187ms
    {NOTE_REST, MS_32},  // 94ms
    {NOTE_AS5, MS_16},  // 187ms
    {NOTE_REST, MS_32},  // 94ms
    {NOTE_G6, MS_16},  // 187ms
    {NOTE_REST, MS_32},  // 94ms
    {NOTE_F6, MS_16},  // 187ms
    {NOTE_REST, MS_32},  // 94ms
    {NOTE_A5, MS_16},  // 187ms
    {NOTE_REST, MS_32},  // 94ms
    {NOTE_AS5, MS_32},  // 94ms
    {NOTE_D5, MS_32},  // 94ms
    {NOTE_F5, MS_32},  // 94ms
    {NOTE_AS5, MS_32},  // 94ms
    {NOTE_A5, MS_32},  // 94ms
    {NOTE_F5, MS_32},  // 94ms
    {NOTE_C6, MS_32},  // 94ms
    {NOTE_A5, MS_32},  // 94ms
    {NOTE_AS5, MS_32},  // 94ms
    {NOTE_F5, MS_32},  // 94ms
    {NOTE_D6, MS_32},  // 94ms
    {NOTE_AS5, MS_32},  // 94ms
    {NOTE_A5, MS_32},  // 94ms
    {NOTE_F5, MS_32},  // 94ms
    {NOTE_C6, MS_32},  // 94ms
    {NOTE_A5, MS_32},  // 94ms
    {NOTE_AS5, MS_32},  // 94ms
    {NOTE_F5, MS_32},  // 94ms
    {NOTE_D6, MS_32},  // 94ms
    {NOTE_AS5, MS_32},  // 94ms
    {NOTE_A5, MS_32},  // 94ms
    {NOTE_F5, MS_32},  // 94ms
    {NOTE_C6, MS_32},  // 94ms
    {NOTE_A5, MS_32},  // 94ms
    {NOTE_AS5, MS_32},  // 94ms
    {NOTE_REST, MS_64},  // 47ms
    {NOTE_D6, MS_32},  // 94ms
    {NOTE_C6, MS_32},  // 94ms
    {NOTE_A5, MS_32},  // 94ms
    {NOTE_AS5, MS_32},  // 94ms
    {NOTE_D6, MS_32},  // 94ms
    {NOTE_C6, MS_32},  // 94ms
    {NOTE_A5, MS_32},  // 94ms
    {NOTE_AS5, MS_16},  // 187ms
    {NOTE_REST, MS_H},  // 750ms
    {NOTE_FS5, MS_16},  // 187ms
    {NOTE_REST, MS_H},  // 750ms
    {NOTE_AS3, MS_32},  // 94ms
    {NOTE_D4, MS_32},  // 94ms
    {NOTE_AS3, MS_32},  // 94ms
    {NOTE_D4, MS_32},  // 94ms
    {NOTE_AS3, MS_32},  // 94ms
    {NOTE_D4, MS_32},  // 94ms
    {NOTE_DS5, MS_32},  // 94ms
    {NOTE_D5, MS_32},  // 94ms
    {NOTE_D5, MS_16},  // 187ms
    {NOTE_D4, MS_32},  // 94ms
    {NOTE_DS5, MS_32},  // 94ms
    {NOTE_D5, MS_32},  // 94ms
    {NOTE_D5, MS_16},  // 187ms
    {NOTE_D4, MS_32},  // 94ms
    {NOTE_DS5, MS_32},  // 94ms
    {NOTE_D5, MS_32},  // 94ms
    {NOTE_D5, MS_16},  // 187ms
    {NOTE_D4, MS_32},  // 94ms
    {NOTE_AS5, MS_16},  // 187ms
    {NOTE_D4, MS_32},  // 94ms
    {NOTE_AS3, MS_32},  // 94ms
    {NOTE_D4, MS_32},  // 94ms
    {NOTE_AS5, MS_32},  // 94ms
    {NOTE_A5, MS_32},  // 94ms
    {NOTE_G5, MS_16},  // 187ms
    {NOTE_D4, MS_32},  // 94ms
    {NOTE_G5, MS_32},  // 94ms
    {NOTE_F5, MS_32},  // 94ms
    {NOTE_DS5, MS_16},  // 187ms
    {NOTE_D4, MS_32},  // 94ms
    {NOTE_DS5, MS_32},  // 94ms
    {NOTE_D5, MS_32},  // 94ms
    {NOTE_C5, MS_16},  // 187ms
    {NOTE_DS4, MS_32},  // 94ms
    {NOTE_C5, MS_16},  // 187ms
    {NOTE_DS4, MS_32},  // 94ms
    {NOTE_A3, MS_32},  // 94ms
    {NOTE_DS4, MS_32},  // 94ms
    {NOTE_D5, MS_32},  // 94ms
    {NOTE_C5, MS_32},  // 94ms
    {NOTE_C5, MS_16},  // 187ms
    {NOTE_DS4, MS_32},  // 94ms
    {NOTE_D5, MS_32},  // 94ms
    {NOTE_C5, MS_32},  // 94ms
    {NOTE_C5, MS_16},  // 187ms
    {NOTE_DS4, MS_32},  // 94ms
    {NOTE_D5, MS_32},  // 94ms
    {NOTE_C5, MS_32},  // 94ms
    {NOTE_C5, MS_16},  // 187ms
    {NOTE_D4, MS_32},  // 94ms
    {NOTE_A5, MS_16},  // 187ms
    {NOTE_D4, MS_32},  // 94ms
    {NOTE_A3, MS_32},  // 94ms
    {NOTE_D4, MS_32},  // 94ms
    {NOTE_A5, MS_32},  // 94ms
    {NOTE_G5, MS_32},  // 94ms
    {NOTE_FS5, MS_16},  // 187ms
    {NOTE_D4, MS_32},  // 94ms
    {NOTE_FS5, MS_32},  // 94ms
    {NOTE_DS5, MS_32},  // 94ms
    {NOTE_D5, MS_16},  // 187ms
    {NOTE_D4, MS_32},  // 94ms
    {NOTE_D5, MS_32},  // 94ms
    {NOTE_C5, MS_32},  // 94ms
    {NOTE_AS4, MS_16},  // 187ms
    {NOTE_D4, MS_32},  // 94ms
    {NOTE_AS4, MS_16},  // 187ms
    {NOTE_D4, MS_32},  // 94ms
    {NOTE_G3, MS_DQ},  // 562ms
    {NOTE_D4, MS_32},  // 94ms
    {NOTE_AS5, MS_32},  // 94ms
    {NOTE_A5, MS_32},  // 94ms
    {NOTE_A5, MS_16},  // 187ms
    {NOTE_A3, MS_32},  // 94ms
    {NOTE_C6, MS_16},  // 187ms
    {NOTE_A3, MS_32},  // 94ms
    {NOTE_FS5, MS_16},  // 187ms
    {NOTE_A3, MS_32},  // 94ms
    {NOTE_A5, MS_16},  // 187ms
    {NOTE_A3, MS_32},  // 94ms
    {NOTE_G5, MS_16},  // 187ms
    {NOTE_AS3, MS_32},  // 94ms
    {NOTE_D5, MS_16},  // 187ms
    {NOTE_AS3, MS_32},  // 94ms
    {NOTE_D3, MS_32},  // 94ms
    {NOTE_AS3, MS_32},  // 94ms
    {NOTE_AS5, MS_32},  // 94ms
    {NOTE_A5, MS_32},  // 94ms
    {NOTE_A5, MS_16},  // 187ms
    {NOTE_A3, MS_32},  // 94ms
    {NOTE_C6, MS_16},  // 187ms
    {NOTE_A3, MS_32},  // 94ms
    {NOTE_FS5, MS_16},  // 187ms
    {NOTE_A3, MS_32},  // 94ms
    {NOTE_A5, MS_16},  // 187ms
    {NOTE_A3, MS_32},  // 94ms
    {NOTE_G5, MS_16},  // 187ms
    {NOTE_AS5, MS_16},  // 187ms
    {NOTE_REST, MS_64},  // 47ms
    {NOTE_A5, MS_32},  // 94ms
    {NOTE_G5, MS_32},  // 94ms
    {NOTE_F5, MS_32},  // 94ms
    {NOTE_DS5, MS_32},  // 94ms
    {NOTE_D5, MS_H},  // 750ms
    {NOTE_FS5, MS_16},  // 187ms
    {NOTE_G5, MS_16},  // 187ms
    {NOTE_A5, MS_16},  // 187ms
    {NOTE_AS5, MS_16},  // 187ms
    {NOTE_C6, MS_32},  // 94ms
    {NOTE_AS5, MS_32},  // 94ms
    {NOTE_A5, MS_16},  // 187ms
    {NOTE_REST, MS_64},  // 47ms
    {NOTE_G5, MS_16},  // 187ms
    {NOTE_FS5, MS_16},  // 187ms
    {NOTE_REST, MS_Q},  // 375ms
    {NOTE_CS6, MS_DQ},  // 562ms
    {NOTE_D3, MS_32},  // 94ms
    {NOTE_D3, MS_32},  // 94ms
    {NOTE_D6, MS_16},  // 187ms
    {NOTE_REST, MS_Q},  // 375ms
    {NOTE_CS6, MS_DQ},  // 562ms
    {NOTE_D3, MS_32},  // 94ms
    {NOTE_D3, MS_32},  // 94ms
    {NOTE_D6, MS_16},  // 187ms
    {NOTE_REST, MS_Q},  // 375ms
    {NOTE_CS6, MS_DQ},  // 562ms
    {NOTE_D3, MS_32},  // 94ms
    {NOTE_D3, MS_32},  // 94ms
    {NOTE_D6, MS_16},  // 187ms
    {NOTE_REST, MS_32},  // 94ms
    {NOTE_CS6, MS_16},  // 187ms
    {NOTE_REST, MS_64},  // 47ms
    {NOTE_D6, MS_16},  // 187ms
    {NOTE_REST, MS_32},  // 94ms
    {NOTE_CS6, MS_16},  // 187ms
    {NOTE_REST, MS_64},  // 47ms
    {NOTE_D6, MS_Q},  // 375ms
    {NOTE_REST, MS_16},  // 187ms
    {NOTE_C4, MS_DQ},  // 562ms
    {NOTE_DS5, MS_32},  // 94ms
    {NOTE_D5, MS_32},  // 94ms
    {NOTE_D5, MS_16},  // 187ms
    {NOTE_REST, MS_32},  // 94ms
    {NOTE_DS5, MS_32},  // 94ms
    {NOTE_D5, MS_32},  // 94ms
    {NOTE_D5, MS_16},  // 187ms
    {NOTE_REST, MS_32},  // 94ms
    {NOTE_DS5, MS_32},  // 94ms
    {NOTE_D5, MS_32},  // 94ms
    {NOTE_D5, MS_DH},  // 1125ms
    {NOTE_D4, MS_32},  // 94ms
    {NOTE_AS5, MS_16},  // 187ms
    {NOTE_D4, MS_32},  // 94ms
    {NOTE_AS3, MS_32},  // 94ms
    {NOTE_D4, MS_32},  // 94ms
    {NOTE_AS5, MS_32},  // 94ms
    {NOTE_A5, MS_32},  // 94ms
    {NOTE_G5, MS_16},  // 187ms
    {NOTE_D4, MS_32},  // 94ms
    {NOTE_G5, MS_32},  // 94ms
    {NOTE_F5, MS_32},  // 94ms
    {NOTE_DS5, MS_16},  // 187ms
    {NOTE_D4, MS_32},  // 94ms
    {NOTE_DS5, MS_32},  // 94ms
    {NOTE_D5, MS_32},  // 94ms
    {NOTE_C5, MS_16},  // 187ms
    {NOTE_C4, MS_32},  // 94ms
    {NOTE_C5, MS_16},  // 187ms
    {NOTE_C4, MS_32},  // 94ms
    {NOTE_G3, MS_32},  // 94ms
    {NOTE_C4, MS_32},  // 94ms
    {NOTE_F5, MS_32},  // 94ms
    {NOTE_DS5, MS_32},  // 94ms
    {NOTE_DS5, MS_16},  // 187ms
    {NOTE_C4, MS_32},  // 94ms
    {NOTE_F5, MS_32},  // 94ms
    {NOTE_DS5, MS_32},  // 94ms
    {NOTE_DS5, MS_16},  // 187ms
    {NOTE_C4, MS_32},  // 94ms
    {NOTE_F5, MS_32},  // 94ms
    {NOTE_DS5, MS_32},  // 94ms
    {NOTE_DS5, MS_DH},  // 1125ms
    {NOTE_F4, MS_32},  // 94ms
    {NOTE_C6, MS_16},  // 187ms
    {NOTE_F4, MS_32},  // 94ms
    {NOTE_A3, MS_32},  // 94ms
    {NOTE_F4, MS_32},  // 94ms
    {NOTE_C6, MS_32},  // 94ms
    {NOTE_AS5, MS_32},  // 94ms
    {NOTE_A5, MS_16},  // 187ms
    {NOTE_F4, MS_32},  // 94ms
    {NOTE_A5, MS_32},  // 94ms
    {NOTE_G5, MS_32},  // 94ms
    {NOTE_F5, MS_16},  // 187ms
    {NOTE_F4, MS_32},  // 94ms
    {NOTE_F5, MS_32},  // 94ms
    {NOTE_DS5, MS_32},  // 94ms
    {NOTE_AS5, MS_H},  // 750ms
    {NOTE_D3, MS_32},  // 94ms
    {NOTE_AS2, MS_32},  // 94ms
    {NOTE_D3, MS_32},  // 94ms
    {NOTE_AS2, MS_32},  // 94ms
    {NOTE_D3, MS_32},  // 94ms
    {NOTE_AS2, MS_32},  // 94ms
    {NOTE_D3, MS_32},  // 94ms
    {NOTE_F6, MS_H},  // 750ms
    {NOTE_C3, MS_32},  // 94ms
    {NOTE_A2, MS_32},  // 94ms
    {NOTE_C3, MS_32},  // 94ms
    {NOTE_A2, MS_32},  // 94ms
    {NOTE_C3, MS_32},  // 94ms
    {NOTE_A2, MS_32},  // 94ms
    {NOTE_F5, MS_32},  // 94ms
    {NOTE_DS5, MS_16},  // 187ms
    {NOTE_AS2, MS_32},  // 94ms
    {NOTE_G5, MS_16},  // 187ms
    {NOTE_AS2, MS_32},  // 94ms
    {NOTE_AS5, MS_16},  // 187ms
    {NOTE_AS2, MS_32},  // 94ms
    {NOTE_G2, MS_32},  // 94ms
    {NOTE_AS2, MS_32},  // 94ms
    {NOTE_D5, MS_16},  // 187ms
    {NOTE_AS2, MS_32},  // 94ms
    {NOTE_F5, MS_16},  // 187ms
    {NOTE_AS2, MS_32},  // 94ms
    {NOTE_AS5, MS_16},  // 187ms
    {NOTE_AS2, MS_32},  // 94ms
    {NOTE_F2, MS_32},  // 94ms
    {NOTE_D5, MS_32},  // 94ms
    {NOTE_C5, MS_H},  // 750ms
    {NOTE_G3, MS_32},  // 94ms
    {NOTE_DS5, MS_16},  // 187ms
    {NOTE_G3, MS_32},  // 94ms
    {NOTE_G5, MS_16},  // 187ms
    {NOTE_G3, MS_32},  // 94ms
    {NOTE_C5, MS_16},  // 187ms
    {NOTE_G3, MS_32},  // 94ms
    {NOTE_AS4, MS_H},  // 750ms
    {NOTE_F3, MS_32},  // 94ms
    {NOTE_D5, MS_16},  // 187ms
    {NOTE_F3, MS_32},  // 94ms
    {NOTE_F5, MS_16},  // 187ms
    {NOTE_F3, MS_32},  // 94ms
    {NOTE_D3, MS_32},  // 94ms
    {NOTE_F5, MS_32},  // 94ms
    {NOTE_E5, MS_32},  // 94ms
    {NOTE_F5, MS_32},  // 94ms
    {NOTE_G5, MS_32},  // 94ms
    {NOTE_A5, MS_32},  // 94ms
    {NOTE_AS5, MS_32},  // 94ms
    {NOTE_C6, MS_32},  // 94ms
    {NOTE_CS6, MS_32},  // 94ms
    {NOTE_REST, MS_64},  // 47ms
    {NOTE_F5, MS_32},  // 94ms
    {NOTE_E5, MS_32},  // 94ms
    {NOTE_F5, MS_32},  // 94ms
    {NOTE_G5, MS_32},  // 94ms
    {NOTE_A5, MS_32},  // 94ms
    {NOTE_AS5, MS_32},  // 94ms
    {NOTE_C6, MS_32},  // 94ms
    {NOTE_CS6, MS_32},  // 94ms
    {NOTE_REST, MS_64},  // 47ms
    {NOTE_F5, MS_32},  // 94ms
    {NOTE_E5, MS_32},  // 94ms
    {NOTE_F5, MS_32},  // 94ms
    {NOTE_G5, MS_32},  // 94ms
    {NOTE_A5, MS_32},  // 94ms
    {NOTE_AS5, MS_32},  // 94ms
    {NOTE_C6, MS_32},  // 94ms
    {NOTE_CS6, MS_32},  // 94ms
    {NOTE_REST, MS_64},  // 47ms
    {NOTE_F5, MS_32},  // 94ms
    {NOTE_E5, MS_32},  // 94ms
    {NOTE_F5, MS_32},  // 94ms
    {NOTE_G5, MS_32},  // 94ms
    {NOTE_A5, MS_32},  // 94ms
    {NOTE_AS5, MS_32},  // 94ms
    {NOTE_C6, MS_32},  // 94ms
    {NOTE_CS6, MS_32},  // 94ms
    {NOTE_E5, MS_32},  // 94ms
    {NOTE_F5, MS_Q},  // 375ms
    {NOTE_F4, MS_32},  // 94ms
    {NOTE_C4, MS_32},  // 94ms
    {NOTE_F4, MS_32},  // 94ms
    {NOTE_C6, MS_16},  // 187ms
    {NOTE_F4, MS_32},  // 94ms
    {NOTE_A5, MS_16},  // 187ms
    {NOTE_F4, MS_32},  // 94ms
    {NOTE_CS6, MS_DQ},  // 562ms
    {NOTE_F4, MS_32},  // 94ms
    {NOTE_CS4, MS_32},  // 94ms
    {NOTE_F4, MS_32},  // 94ms
    {NOTE_E5, MS_16},  // 187ms
    {NOTE_E4, MS_32},  // 94ms
    {NOTE_G5, MS_16},  // 187ms
    {NOTE_E4, MS_32},  // 94ms
    {NOTE_F5, MS_DQ},  // 562ms
    {NOTE_F4, MS_32},  // 94ms
    {NOTE_C4, MS_32},  // 94ms
    {NOTE_F4, MS_32},  // 94ms
    {NOTE_C6, MS_32},  // 94ms
    {NOTE_A5, MS_32},  // 94ms
    {NOTE_C6, MS_32},  // 94ms
    {NOTE_A5, MS_32},  // 94ms
    {NOTE_CS6, MS_32},  // 94ms
    {NOTE_AS5, MS_32},  // 94ms
    {NOTE_CS6, MS_32},  // 94ms
    {NOTE_AS5, MS_32},  // 94ms
    {NOTE_E6, MS_32},  // 94ms
    {NOTE_G5, MS_32},  // 94ms
    {NOTE_E6, MS_32},  // 94ms
    {NOTE_G5, MS_32},  // 94ms
    {NOTE_F6, MS_16},  // 187ms
    {NOTE_REST, MS_Q},  // 375ms
    {NOTE_F4, MS_16},  // 187ms
    {NOTE_REST, MS_W},  // 1500ms
    {NOTE_F5, MS_H},  // 750ms
    {NOTE_REST, MS_32},  // 94ms
    {NOTE_E5, MS_16},  // 187ms
    {NOTE_DS5, MS_H},  // 750ms
    {NOTE_REST, MS_32},  // 94ms
    {NOTE_F5, MS_64},  // 47ms
    {NOTE_REST, MS_64},  // 47ms
    {NOTE_DS5, MS_64},  // 47ms
    {NOTE_D5, MS_64},  // 47ms
    {NOTE_REST, MS_64},  // 47ms
    {NOTE_C5, MS_64},  // 47ms
    {NOTE_AS4, MS_32},  // 94ms
    {NOTE_REST, MS_32},  // 94ms
    {NOTE_AS4, MS_16},  // 187ms
    {NOTE_REST, MS_64},  // 47ms
    {NOTE_AS4, MS_16},  // 187ms
    {NOTE_C5, MS_16},  // 187ms
    {NOTE_REST, MS_64},  // 47ms
    {NOTE_D5, MS_Q},  // 375ms
    {NOTE_DS5, MS_32},  // 94ms
    {NOTE_C5, MS_16},  // 187ms
    {NOTE_REST, MS_Q},  // 375ms
    {NOTE_G5, MS_H},  // 750ms
    {NOTE_REST, MS_64},  // 47ms
    {NOTE_FS5, MS_16},  // 187ms
    {NOTE_F5, MS_16},  // 187ms
    {NOTE_REST, MS_64},  // 47ms
    {NOTE_E5, MS_16},  // 187ms
    {NOTE_DS5, MS_16},  // 187ms
    {NOTE_REST, MS_64},  // 47ms
    {NOTE_D5, MS_16},  // 187ms
    {NOTE_C5, MS_16},  // 187ms
    {NOTE_REST, MS_64},  // 47ms
    {NOTE_DS5, MS_DQ},  // 562ms
    {NOTE_C4, MS_16},  // 187ms
    {NOTE_A4, MS_16},  // 187ms
    {NOTE_AS4, MS_32},  // 94ms
    {NOTE_REST, MS_64},  // 47ms
    {NOTE_A4, MS_32},  // 94ms
    {NOTE_C5, MS_32},  // 94ms
    {NOTE_AS4, MS_32},  // 94ms
    {NOTE_D5, MS_32},  // 94ms
    {NOTE_C5, MS_32},  // 94ms
    {NOTE_DS5, MS_32},  // 94ms
    {NOTE_D5, MS_32},  // 94ms
    {NOTE_REST, MS_64},  // 47ms
    {NOTE_F6, MS_H},  // 750ms
    {NOTE_REST, MS_64},  // 47ms
    {NOTE_E6, MS_16},  // 187ms
    {NOTE_REST, MS_64},  // 47ms
    {NOTE_DS6, MS_16},  // 187ms
    {NOTE_REST, MS_DQ},  // 562ms
    {NOTE_F5, MS_64},  // 47ms
    {NOTE_DS5, MS_64},  // 47ms
    {NOTE_REST, MS_64},  // 47ms
    {NOTE_D5, MS_64},  // 47ms
    {NOTE_C5, MS_64},  // 47ms
    {NOTE_AS4, MS_32},  // 94ms
    {NOTE_REST, MS_16},  // 187ms
    {NOTE_AS5, MS_16},  // 187ms
    {NOTE_AS5, MS_16},  // 187ms
    {NOTE_REST, MS_64},  // 47ms
    {NOTE_C6, MS_16},  // 187ms
    {NOTE_D6, MS_Q},  // 375ms
    {NOTE_DS6, MS_32},  // 94ms
    {NOTE_C6, MS_16},  // 187ms
    {NOTE_REST, MS_Q},  // 375ms
    {NOTE_G5, MS_H},  // 750ms
    {NOTE_REST, MS_64},  // 47ms
    {NOTE_FS5, MS_16},  // 187ms
    {NOTE_REST, MS_64},  // 47ms
    {NOTE_F5, MS_16},  // 187ms
    {NOTE_E5, MS_16},  // 187ms
    {NOTE_REST, MS_64},  // 47ms
    {NOTE_DS5, MS_16},  // 187ms
    {NOTE_D5, MS_16},  // 187ms
    {NOTE_REST, MS_64},  // 47ms
    {NOTE_CS5, MS_H},  // 750ms
    {NOTE_AS3, MS_32},  // 94ms
    {NOTE_G5, MS_DQ},  // 562ms
    {NOTE_AS3, MS_32},  // 94ms
    {NOTE_CS4, MS_32},  // 94ms
    {NOTE_AS3, MS_32},  // 94ms
    {NOTE_GS5, MS_16},  // 187ms
    {NOTE_GS3, MS_32},  // 94ms
    {NOTE_CS5, MS_H},  // 750ms
    {NOTE_AS3, MS_32},  // 94ms
    {NOTE_G5, MS_DQ},  // 562ms
    {NOTE_AS3, MS_32},  // 94ms
    {NOTE_CS4, MS_32},  // 94ms
    {NOTE_AS3, MS_32},  // 94ms
    {NOTE_GS5, MS_16},  // 187ms
    {NOTE_GS3, MS_32},  // 94ms
    {NOTE_CS5, MS_H},  // 750ms
    {NOTE_AS3, MS_32},  // 94ms
    {NOTE_G5, MS_DQ},  // 562ms
    {NOTE_AS3, MS_32},  // 94ms
    {NOTE_CS4, MS_32},  // 94ms
    {NOTE_AS3, MS_32},  // 94ms
    {NOTE_GS5, MS_16},  // 187ms
    {NOTE_GS3, MS_32},  // 94ms
    {NOTE_CS5, MS_H},  // 750ms
    {NOTE_AS3, MS_32},  // 94ms
    {NOTE_G5, MS_DQ},  // 562ms
    {NOTE_AS3, MS_32},  // 94ms
    {NOTE_CS4, MS_32},  // 94ms
    {NOTE_AS3, MS_32},  // 94ms
    {NOTE_GS5, MS_16},  // 187ms
    {NOTE_GS3, MS_32},  // 94ms
    {NOTE_G5, MS_32},  // 94ms
    {NOTE_G5, MS_16},  // 187ms
    {NOTE_CS4, MS_16},  // 187ms
    {NOTE_G5, MS_16},  // 187ms
    {NOTE_CS4, MS_16},  // 187ms
    {NOTE_G5, MS_16},  // 187ms
    {NOTE_CS4, MS_16},  // 187ms
    {NOTE_G5, MS_32},  // 94ms
    {NOTE_G6, MS_32},  // 94ms
    {NOTE_G6, MS_16},  // 187ms
    {NOTE_CS4, MS_16},  // 187ms
    {NOTE_G6, MS_16},  // 187ms
    {NOTE_CS4, MS_16},  // 187ms
    {NOTE_G6, MS_16},  // 187ms
    {NOTE_CS4, MS_16},  // 187ms
    {NOTE_G6, MS_32},  // 94ms
    {NOTE_F6, MS_16},  // 187ms
    {NOTE_AS2, MS_64},  // 47ms
    {NOTE_D3, MS_64},  // 47ms
    {NOTE_REST, MS_64},  // 47ms
    {NOTE_F3, MS_64},  // 47ms
    {NOTE_F6, MS_DQ},  // 562ms
    {NOTE_AS2, MS_64},  // 47ms
    {NOTE_REST, MS_64},  // 47ms
    {NOTE_D3, MS_64},  // 47ms
    {NOTE_F3, MS_64},  // 47ms
    {NOTE_REST, MS_64},  // 47ms
    {NOTE_F2, MS_16},  // 187ms
    {NOTE_AS2, MS_64},  // 47ms
    {NOTE_D3, MS_64},  // 47ms
    {NOTE_REST, MS_64},  // 47ms
    {NOTE_F3, MS_64},  // 47ms
    {NOTE_F6, MS_16},  // 187ms
    {NOTE_AS2, MS_64},  // 47ms
    {NOTE_REST, MS_64},  // 47ms
    {NOTE_D3, MS_64},  // 47ms
    {NOTE_F3, MS_64},  // 47ms
    {NOTE_A5, MS_32},  // 94ms
    {NOTE_AS5, MS_32},  // 94ms
    {NOTE_DS3, MS_64},  // 47ms
    {NOTE_A5, MS_32},  // 94ms
    {NOTE_F3, MS_64},  // 47ms
    {NOTE_AS5, MS_32},  // 94ms
    {NOTE_C3, MS_64},  // 47ms
    {NOTE_A5, MS_64},  // 47ms
    {NOTE_AS5, MS_64},  // 47ms
    {NOTE_F3, MS_64},  // 47ms
    {NOTE_A5, MS_64},  // 47ms
    {NOTE_REST, MS_64},  // 47ms
    {NOTE_AS5, MS_64},  // 47ms
    {NOTE_DS3, MS_64},  // 47ms
    {NOTE_A5, MS_32},  // 94ms
    {NOTE_AS5, MS_32},  // 94ms
    {NOTE_F2, MS_16},  // 187ms
    {NOTE_A5, MS_32},  // 94ms
    {NOTE_G5, MS_32},  // 94ms
    {NOTE_A5, MS_64},  // 47ms
    {NOTE_AS5, MS_32},  // 94ms
    {NOTE_REST, MS_16},  // 187ms
    {NOTE_D4, MS_Q},  // 375ms
    {NOTE_REST, MS_64},  // 47ms
    {NOTE_D4, MS_32},  // 94ms
    {NOTE_DS4, MS_32},  // 94ms
    {NOTE_DS4, MS_32},  // 94ms
    {NOTE_E4, MS_32},  // 94ms
    {NOTE_REST, MS_64},  // 47ms
    {NOTE_E4, MS_32},  // 94ms
    {NOTE_F4, MS_32},  // 94ms
    {NOTE_F4, MS_32},  // 94ms
    {NOTE_FS4, MS_32},  // 94ms
    {NOTE_REST, MS_64},  // 47ms
    {NOTE_FS4, MS_32},  // 94ms
    {NOTE_G4, MS_32},  // 94ms
    {NOTE_REST, MS_64},  // 47ms
    {NOTE_G4, MS_32},  // 94ms
    {NOTE_F5, MS_16},  // 187ms
    {NOTE_REST, MS_16},  // 187ms
    {NOTE_GS3, MS_64},  // 47ms
    {NOTE_REST, MS_64},  // 47ms
    {NOTE_G5, MS_16},  // 187ms
    {NOTE_REST, MS_16},  // 187ms
    {NOTE_G3, MS_64},  // 47ms
    {NOTE_REST, MS_64},  // 47ms
    {NOTE_C6, MS_16},  // 187ms
    {NOTE_REST, MS_16},  // 187ms
    {NOTE_DS4, MS_64},  // 47ms
    {NOTE_REST, MS_64},  // 47ms
    {NOTE_D6, MS_16},  // 187ms
    {NOTE_REST, MS_16},  // 187ms
    {NOTE_D4, MS_64},  // 47ms
    {NOTE_REST, MS_64},  // 47ms
    {NOTE_G6, MS_H},  // 750ms
    {NOTE_F6, MS_32},  // 94ms
    {NOTE_REST, MS_64},  // 47ms
    {NOTE_DS6, MS_32},  // 94ms
    {NOTE_REST, MS_64},  // 47ms
    {NOTE_D6, MS_32},  // 94ms
    {NOTE_C6, MS_32},  // 94ms
    {NOTE_REST, MS_64},  // 47ms
    {NOTE_AS5, MS_32},  // 94ms
    {NOTE_REST, MS_64},  // 47ms
    {NOTE_A5, MS_32},  // 94ms
    {NOTE_REST, MS_64},  // 47ms
    {NOTE_G5, MS_32},  // 94ms
    {NOTE_F5, MS_32},  // 94ms
    {NOTE_REST, MS_64},  // 47ms
    {NOTE_DS5, MS_32},  // 94ms
    {NOTE_REST, MS_64},  // 47ms
    {NOTE_D5, MS_32},  // 94ms
    {NOTE_C5, MS_32},  // 94ms
    {NOTE_REST, MS_64},  // 47ms
    {NOTE_AS4, MS_32},  // 94ms
    {NOTE_F3, MS_32},  // 94ms
    {NOTE_D4, MS_32},  // 94ms
    {NOTE_F3, MS_32},  // 94ms
    {NOTE_AS5, MS_DH},  // 1125ms
    {NOTE_F3, MS_32},  // 94ms
    {NOTE_G5, MS_32},  // 94ms
    {NOTE_F5, MS_32},  // 94ms
    {NOTE_F5, MS_16},  // 187ms
    {NOTE_F3, MS_32},  // 94ms
    {NOTE_G5, MS_16},  // 187ms
    {NOTE_F5, MS_32},  // 94ms
    {NOTE_A5, MS_32},  // 94ms
    {NOTE_REST, MS_64},  // 47ms
    {NOTE_F3, MS_32},  // 94ms
    {NOTE_G4, MS_32},  // 94ms
    {NOTE_F4, MS_32},  // 94ms
    {NOTE_F4, MS_16},  // 187ms
    {NOTE_F3, MS_16},  // 187ms
    {NOTE_G4, MS_32},  // 94ms
    {NOTE_F4, MS_32},  // 94ms
    {NOTE_AS5, MS_DH},  // 1125ms
    {NOTE_F3, MS_32},  // 94ms
    {NOTE_G5, MS_32},  // 94ms
    {NOTE_F5, MS_32},  // 94ms
    {NOTE_F5, MS_16},  // 187ms
    {NOTE_F3, MS_32},  // 94ms
    {NOTE_G5, MS_16},  // 187ms
    {NOTE_F5, MS_32},  // 94ms
    {NOTE_A5, MS_32},  // 94ms
    {NOTE_F3, MS_32},  // 94ms
    {NOTE_G4, MS_32},  // 94ms
    {NOTE_F4, MS_32},  // 94ms
    {NOTE_F4, MS_16},  // 187ms
    {NOTE_F3, MS_16},  // 187ms
    {NOTE_G4, MS_32},  // 94ms
    {NOTE_F4, MS_32},  // 94ms
    {NOTE_F4, MS_32},  // 94ms
    {NOTE_F3, MS_32},  // 94ms
    {NOTE_DS6, MS_32},  // 94ms
    {NOTE_D6, MS_32},  // 94ms
    {NOTE_D6, MS_16},  // 187ms
    {NOTE_D3, MS_32},  // 94ms
    {NOTE_DS6, MS_32},  // 94ms
    {NOTE_D6, MS_32},  // 94ms
    {NOTE_D6, MS_16},  // 187ms
    {NOTE_D3, MS_32},  // 94ms
    {NOTE_DS6, MS_32},  // 94ms
    {NOTE_D6, MS_32},  // 94ms
    {NOTE_D6, MS_Q},  // 375ms
    {NOTE_D4, MS_32},  // 94ms
    {NOTE_AS3, MS_32},  // 94ms
    {NOTE_D4, MS_32},  // 94ms
    {NOTE_DS6, MS_Q},  // 375ms
    {NOTE_DS4, MS_32},  // 94ms
    {NOTE_C4, MS_32},  // 94ms
    {NOTE_C6, MS_32},  // 94ms
    {NOTE_REST, MS_64},  // 47ms
    {NOTE_AS5, MS_Q},  // 375ms
    {NOTE_F4, MS_32},  // 94ms
    {NOTE_D4, MS_32},  // 94ms
    {NOTE_D6, MS_32},  // 94ms
    {NOTE_REST, MS_64},  // 47ms
    {NOTE_C6, MS_Q},  // 375ms
    {NOTE_F4, MS_32},  // 94ms
    {NOTE_DS4, MS_32},  // 94ms
    {NOTE_A5, MS_32},  // 94ms
    {NOTE_REST, MS_64},  // 47ms
    {NOTE_AS5, MS_32},  // 94ms
    {NOTE_F4, MS_32},  // 94ms
    {NOTE_D4, MS_32},  // 94ms
    {NOTE_F4, MS_32},  // 94ms
    {NOTE_D4, MS_32},  // 94ms
    {NOTE_F4, MS_32},  // 94ms
    {NOTE_G5, MS_32},  // 94ms
    {NOTE_F5, MS_32},  // 94ms
    {NOTE_REST, MS_64},  // 47ms
    {NOTE_F5, MS_16},  // 187ms
    {NOTE_DS4, MS_32},  // 94ms
    {NOTE_G5, MS_32},  // 94ms
    {NOTE_F5, MS_32},  // 94ms
    {NOTE_DS6, MS_DH},  // 1125ms
    {NOTE_F4, MS_32},  // 94ms
    {NOTE_G5, MS_32},  // 94ms
    {NOTE_F5, MS_32},  // 94ms
    {NOTE_F5, MS_16},  // 187ms
    {NOTE_F4, MS_32},  // 94ms
    {NOTE_G5, MS_16},  // 187ms
    {NOTE_F5, MS_32},  // 94ms
    {NOTE_D6, MS_32},  // 94ms
    {NOTE_REST, MS_64},  // 47ms
    {NOTE_F4, MS_32},  // 94ms
    {NOTE_G5, MS_32},  // 94ms
    {NOTE_F5, MS_32},  // 94ms
    {NOTE_F5, MS_16},  // 187ms
    {NOTE_DS4, MS_16},  // 187ms
    {NOTE_G5, MS_32},  // 94ms
    {NOTE_F5, MS_32},  // 94ms
    {NOTE_F5, MS_32},  // 94ms
    {NOTE_REST, MS_64},  // 47ms
    {NOTE_F4, MS_32},  // 94ms
    {NOTE_G5, MS_32},  // 94ms
    {NOTE_F5, MS_32},  // 94ms
    {NOTE_F5, MS_16},  // 187ms
    {NOTE_F4, MS_32},  // 94ms
    {NOTE_G5, MS_32},  // 94ms
    {NOTE_F5, MS_32},  // 94ms
    {NOTE_REST, MS_64},  // 47ms
    {NOTE_F5, MS_16},  // 187ms
    {NOTE_F4, MS_32},  // 94ms
    {NOTE_DS6, MS_32},  // 94ms
    {NOTE_D6, MS_32},  // 94ms
    {NOTE_D6, MS_16},  // 187ms
    {NOTE_D4, MS_32},  // 94ms
    {NOTE_DS6, MS_32},  // 94ms
    {NOTE_D6, MS_32},  // 94ms
    {NOTE_D6, MS_16},  // 187ms
    {NOTE_D4, MS_32},  // 94ms
    {NOTE_DS6, MS_32},  // 94ms
    {NOTE_D6, MS_32},  // 94ms
    {NOTE_D6, MS_Q},  // 375ms
    {NOTE_D4, MS_32},  // 94ms
    {NOTE_AS3, MS_32},  // 94ms
    {NOTE_D4, MS_32},  // 94ms
    {NOTE_DS6, MS_Q},  // 375ms
    {NOTE_DS4, MS_32},  // 94ms
    {NOTE_C4, MS_32},  // 94ms
    {NOTE_C6, MS_32},  // 94ms
    {NOTE_AS5, MS_Q},  // 375ms
    {NOTE_F4, MS_32},  // 94ms
    {NOTE_D4, MS_32},  // 94ms
    {NOTE_D6, MS_32},  // 94ms
    {NOTE_C6, MS_Q},  // 375ms
    {NOTE_F4, MS_32},  // 94ms
    {NOTE_DS4, MS_32},  // 94ms
    {NOTE_A5, MS_32},  // 94ms
    {NOTE_AS5, MS_32},  // 94ms
    {NOTE_F5, MS_32},  // 94ms
    {NOTE_D6, MS_32},  // 94ms
    {NOTE_C6, MS_32},  // 94ms
    {NOTE_AS5, MS_32},  // 94ms
    {NOTE_A5, MS_32},  // 94ms
    {NOTE_G5, MS_32},  // 94ms
    {NOTE_F5, MS_32},  // 94ms
    {NOTE_DS5, MS_32},  // 94ms
    {NOTE_D5, MS_32},  // 94ms
    {NOTE_C5, MS_32},  // 94ms
    {NOTE_AS4, MS_32},  // 94ms
    {NOTE_A4, MS_32},  // 94ms
    {NOTE_G4, MS_32},  // 94ms
    {NOTE_F4, MS_32},  // 94ms
    {NOTE_DS4, MS_32},  // 94ms
    {NOTE_D4, MS_32},  // 94ms
    {NOTE_REST, MS_32},  // 94ms
    {NOTE_F5, MS_16},  // 187ms
    {NOTE_REST, MS_32},  // 94ms
    {NOTE_G5, MS_16},  // 187ms
    {NOTE_REST, MS_32},  // 94ms
    {NOTE_A5, MS_16},  // 187ms
    {NOTE_REST, MS_32},  // 94ms
    {NOTE_AS5, MS_32},  // 94ms
    {NOTE_F5, MS_32},  // 94ms
    {NOTE_D6, MS_32},  // 94ms
    {NOTE_C6, MS_32},  // 94ms
    {NOTE_AS5, MS_32},  // 94ms
    {NOTE_A5, MS_32},  // 94ms
    {NOTE_G5, MS_32},  // 94ms
    {NOTE_F5, MS_32},  // 94ms
    {NOTE_DS5, MS_32},  // 94ms
    {NOTE_D5, MS_32},  // 94ms
    {NOTE_C5, MS_32},  // 94ms
    {NOTE_AS4, MS_32},  // 94ms
    {NOTE_A4, MS_32},  // 94ms
    {NOTE_C5, MS_32},  // 94ms
    {NOTE_F5, MS_32},  // 94ms
    {NOTE_DS5, MS_32},  // 94ms
    {NOTE_D5, MS_32},  // 94ms
    {NOTE_REST, MS_16},  // 187ms
    {NOTE_F5, MS_16},  // 187ms
    {NOTE_REST, MS_32},  // 94ms
    {NOTE_G5, MS_16},  // 187ms
    {NOTE_REST, MS_32},  // 94ms
    {NOTE_A5, MS_16},  // 187ms
    {NOTE_REST, MS_32},  // 94ms
    {NOTE_AS5, MS_16},  // 187ms
    {NOTE_REST, MS_32},  // 94ms
    {NOTE_G6, MS_16},  // 187ms
    {NOTE_REST, MS_32},  // 94ms
    {NOTE_F6, MS_16},  // 187ms
    {NOTE_REST, MS_32},  // 94ms
    {NOTE_A5, MS_16},  // 187ms
    {NOTE_REST, MS_32},  // 94ms
    {NOTE_AS5, MS_32},  // 94ms
    {NOTE_D5, MS_32},  // 94ms
    {NOTE_F5, MS_32},  // 94ms
    {NOTE_AS5, MS_32},  // 94ms
    {NOTE_A5, MS_32},  // 94ms
    {NOTE_F5, MS_32},  // 94ms
    {NOTE_C6, MS_32},  // 94ms
    {NOTE_A5, MS_32},  // 94ms
    {NOTE_AS5, MS_32},  // 94ms
    {NOTE_F5, MS_32},  // 94ms
    {NOTE_D6, MS_32},  // 94ms
    {NOTE_AS5, MS_32},  // 94ms
    {NOTE_A5, MS_32},  // 94ms
    {NOTE_F5, MS_32},  // 94ms
    {NOTE_C6, MS_32},  // 94ms
    {NOTE_A5, MS_32},  // 94ms
    {NOTE_AS5, MS_32},  // 94ms
    {NOTE_F5, MS_32},  // 94ms
    {NOTE_D6, MS_32},  // 94ms
    {NOTE_AS5, MS_32},  // 94ms
    {NOTE_A5, MS_32},  // 94ms
    {NOTE_F5, MS_32},  // 94ms
    {NOTE_C6, MS_32},  // 94ms
    {NOTE_A5, MS_32},  // 94ms
    {NOTE_AS5, MS_32},  // 94ms
    {NOTE_REST, MS_64},  // 47ms
    {NOTE_D6, MS_32},  // 94ms
    {NOTE_C6, MS_32},  // 94ms
    {NOTE_A5, MS_32},  // 94ms
    {NOTE_AS5, MS_32},  // 94ms
    {NOTE_D6, MS_32},  // 94ms
    {NOTE_C6, MS_32},  // 94ms
    {NOTE_A5, MS_32},  // 94ms
    {NOTE_AS5, MS_16},  // 187ms
    {NOTE_REST, MS_H},  // 750ms
    {NOTE_FS5, MS_16},  // 187ms
    {NOTE_REST, MS_H},  // 750ms
    {NOTE_G5, MS_16},  // 187ms
    {NOTE_REST, MS_Q},  // 375ms
    {NOTE_GS5, MS_16},  // 187ms
    {NOTE_REST, MS_Q},  // 375ms
    {NOTE_D6, MS_DH},  // 1125ms
    {NOTE_REST, MS_32},  // 94ms
    {NOTE_CS6, MS_DQ},  // 562ms
    {NOTE_REST, MS_64},  // 47ms
    {NOTE_B5, MS_DQ},  // 562ms
    {NOTE_D5, MS_16},  // 187ms
    {NOTE_CS5, MS_32},  // 94ms
    {NOTE_A5, MS_DQ},  // 562ms
    {NOTE_D5, MS_16},  // 187ms
    {NOTE_CS5, MS_32},  // 94ms
    {NOTE_GS5, MS_Q},  // 375ms
    {NOTE_D5, MS_32},  // 94ms
    {NOTE_REST, MS_32},  // 94ms
    {NOTE_A3, MS_32},  // 94ms
    {NOTE_CS4, MS_32},  // 94ms
    {NOTE_A5, MS_16},  // 187ms
    {NOTE_CS4, MS_32},  // 94ms
    {NOTE_A3, MS_32},  // 94ms
    {NOTE_CS4, MS_32},  // 94ms
    {NOTE_A5, MS_32},  // 94ms
    {NOTE_GS5, MS_32},  // 94ms
    {NOTE_FS5, MS_16},  // 187ms
    {NOTE_CS4, MS_32},  // 94ms
    {NOTE_FS5, MS_32},  // 94ms
    {NOTE_E5, MS_32},  // 94ms
    {NOTE_D5, MS_16},  // 187ms
    {NOTE_CS4, MS_32},  // 94ms
    {NOTE_D5, MS_32},  // 94ms
    {NOTE_CS5, MS_32},  // 94ms
    {NOTE_C5, MS_16},  // 187ms
    {NOTE_DS4, MS_32},  // 94ms
    {NOTE_C5, MS_16},  // 187ms
    {NOTE_DS4, MS_32},  // 94ms
    {NOTE_C4, MS_32},  // 94ms
    {NOTE_DS4, MS_32},  // 94ms
    {NOTE_CS5, MS_32},  // 94ms
    {NOTE_B4, MS_32},  // 94ms
    {NOTE_B4, MS_16},  // 187ms
    {NOTE_D4, MS_32},  // 94ms
    {NOTE_CS5, MS_32},  // 94ms
    {NOTE_B4, MS_32},  // 94ms
    {NOTE_B4, MS_16},  // 187ms
    {NOTE_D4, MS_32},  // 94ms
    {NOTE_CS5, MS_32},  // 94ms
    {NOTE_B4, MS_32},  // 94ms
    {NOTE_B4, MS_16},  // 187ms
    {NOTE_CS4, MS_32},  // 94ms
    {NOTE_GS5, MS_16},  // 187ms
    {NOTE_CS4, MS_32},  // 94ms
    {NOTE_B3, MS_32},  // 94ms
    {NOTE_CS4, MS_32},  // 94ms
    {NOTE_GS5, MS_32},  // 94ms
    {NOTE_FS5, MS_32},  // 94ms
    {NOTE_F5, MS_16},  // 187ms
    {NOTE_CS4, MS_32},  // 94ms
    {NOTE_F5, MS_32},  // 94ms
    {NOTE_D5, MS_32},  // 94ms
    {NOTE_CS5, MS_16},  // 187ms
    {NOTE_CS4, MS_32},  // 94ms
    {NOTE_CS5, MS_32},  // 94ms
    {NOTE_B4, MS_32},  // 94ms
    {NOTE_AS4, MS_16},  // 187ms
    {NOTE_CS4, MS_32},  // 94ms
    {NOTE_AS4, MS_16},  // 187ms
    {NOTE_CS4, MS_32},  // 94ms
    {NOTE_AS3, MS_32},  // 94ms
    {NOTE_CS4, MS_32},  // 94ms
    {NOTE_B4, MS_32},  // 94ms
    {NOTE_A4, MS_32},  // 94ms
    {NOTE_A4, MS_16},  // 187ms
    {NOTE_C4, MS_32},  // 94ms
    {NOTE_B4, MS_32},  // 94ms
    {NOTE_A4, MS_32},  // 94ms
    {NOTE_A4, MS_16},  // 187ms
    {NOTE_C4, MS_32},  // 94ms
    {NOTE_B4, MS_32},  // 94ms
    {NOTE_A4, MS_32},  // 94ms
    {NOTE_A4, MS_16},  // 187ms
    {NOTE_B3, MS_32},  // 94ms
    {NOTE_FS5, MS_16},  // 187ms
    {NOTE_B3, MS_32},  // 94ms
    {NOTE_A3, MS_32},  // 94ms
    {NOTE_B3, MS_32},  // 94ms
    {NOTE_FS5, MS_32},  // 94ms
    {NOTE_E5, MS_32},  // 94ms
    {NOTE_DS5, MS_16},  // 187ms
    {NOTE_A3, MS_32},  // 94ms
    {NOTE_DS5, MS_32},  // 94ms
    {NOTE_C5, MS_32},  // 94ms
    {NOTE_B4, MS_32},  // 94ms
    {NOTE_DS5, MS_32},  // 94ms
    {NOTE_FS5, MS_DQ},  // 562ms
    {NOTE_A4, MS_32},  // 94ms
    {NOTE_G4, MS_32},  // 94ms
    {NOTE_B4, MS_32},  // 94ms
    {NOTE_E5, MS_DQ},  // 562ms
    {NOTE_G4, MS_32},  // 94ms
    {NOTE_FS4, MS_32},  // 94ms
    {NOTE_A4, MS_32},  // 94ms
    {NOTE_DS5, MS_16},  // 187ms
    {NOTE_FS4, MS_32},  // 94ms
    {NOTE_E5, MS_32},  // 94ms
    {NOTE_REST, MS_64},  // 47ms
    {NOTE_B4, MS_32},  // 94ms
    {NOTE_CS5, MS_32},  // 94ms
    {NOTE_DS5, MS_32},  // 94ms
    {NOTE_E5, MS_32},  // 94ms
    {NOTE_B4, MS_32},  // 94ms
    {NOTE_E5, MS_32},  // 94ms
    {NOTE_FS5, MS_32},  // 94ms
    {NOTE_G5, MS_32},  // 94ms
    {NOTE_E5, MS_32},  // 94ms
    {NOTE_FS5, MS_32},  // 94ms
    {NOTE_GS5, MS_32},  // 94ms
    {NOTE_A5, MS_32},  // 94ms
    {NOTE_E5, MS_32},  // 94ms
    {NOTE_A5, MS_32},  // 94ms
    {NOTE_B5, MS_32},  // 94ms
    {NOTE_C6, MS_16},  // 187ms
    {NOTE_B3, MS_32},  // 94ms
    {NOTE_A4, MS_DQ},  // 562ms
    {NOTE_B3, MS_32},  // 94ms
    {NOTE_A3, MS_32},  // 94ms
    {NOTE_AS3, MS_32},  // 94ms
    {NOTE_AS5, MS_32},  // 94ms
    {NOTE_A5, MS_32},  // 94ms
    {NOTE_A5, MS_16},  // 187ms
    {NOTE_A3, MS_32},  // 94ms
    {NOTE_AS5, MS_32},  // 94ms
    {NOTE_A5, MS_32},  // 94ms
    {NOTE_A5, MS_16},  // 187ms
    {NOTE_G3, MS_32},  // 94ms
    {NOTE_AS5, MS_32},  // 94ms
    {NOTE_A5, MS_32},  // 94ms
    {NOTE_A5, MS_16},  // 187ms
    {NOTE_A2, MS_32},  // 94ms
    {NOTE_F6, MS_16},  // 187ms
    {NOTE_CS3, MS_32},  // 94ms
    {NOTE_D3, MS_32},  // 94ms
    {NOTE_A2, MS_32},  // 94ms
    {NOTE_F6, MS_32},  // 94ms
    {NOTE_E6, MS_32},  // 94ms
    {NOTE_D6, MS_16},  // 187ms
    {NOTE_D3, MS_32},  // 94ms
    {NOTE_D6, MS_32},  // 94ms
    {NOTE_C6, MS_32},  // 94ms
    {NOTE_AS5, MS_16},  // 187ms
    {NOTE_D3, MS_32},  // 94ms
    {NOTE_AS5, MS_32},  // 94ms
    {NOTE_A5, MS_32},  // 94ms
    {NOTE_G5, MS_32},  // 94ms
    {NOTE_REST, MS_64},  // 47ms
    {NOTE_D5, MS_32},  // 94ms
    {NOTE_AS4, MS_32},  // 94ms
    {NOTE_C5, MS_32},  // 94ms
    {NOTE_D5, MS_32},  // 94ms
    {NOTE_B4, MS_32},  // 94ms
    {NOTE_D5, MS_DQ},  // 562ms
    {NOTE_F4, MS_32},  // 94ms
    {NOTE_E4, MS_32},  // 94ms
    {NOTE_G4, MS_32},  // 94ms
    {NOTE_C5, MS_DQ},  // 562ms
    {NOTE_E4, MS_32},  // 94ms
    {NOTE_D4, MS_32},  // 94ms
    {NOTE_F4, MS_32},  // 94ms
    {NOTE_B4, MS_16},  // 187ms
    {NOTE_D4, MS_32},  // 94ms
    {NOTE_C5, MS_32},  // 94ms
    {NOTE_REST, MS_64},  // 47ms
    {NOTE_G4, MS_32},  // 94ms
    {NOTE_A4, MS_32},  // 94ms
    {NOTE_B4, MS_32},  // 94ms
    {NOTE_C5, MS_32},  // 94ms
    {NOTE_G4, MS_32},  // 94ms
    {NOTE_C5, MS_32},  // 94ms
    {NOTE_D5, MS_32},  // 94ms
    {NOTE_E5, MS_32},  // 94ms
    {NOTE_C5, MS_32},  // 94ms
    {NOTE_D5, MS_32},  // 94ms
    {NOTE_E5, MS_32},  // 94ms
    {NOTE_F5, MS_32},  // 94ms
    {NOTE_C5, MS_32},  // 94ms
    {NOTE_F5, MS_32},  // 94ms
    {NOTE_G5, MS_32},  // 94ms
    {NOTE_A5, MS_16},  // 187ms
    {NOTE_G3, MS_32},  // 94ms
    {NOTE_F4, MS_DQ},  // 562ms
    {NOTE_G3, MS_32},  // 94ms
    {NOTE_F3, MS_32},  // 94ms
    {NOTE_G3, MS_32},  // 94ms
    {NOTE_G5, MS_32},  // 94ms
    {NOTE_F5, MS_32},  // 94ms
    {NOTE_F5, MS_16},  // 187ms
    {NOTE_F3, MS_32},  // 94ms
    {NOTE_G5, MS_32},  // 94ms
    {NOTE_F5, MS_32},  // 94ms
    {NOTE_F5, MS_16},  // 187ms
    {NOTE_DS3, MS_32},  // 94ms
    {NOTE_G5, MS_32},  // 94ms
    {NOTE_F5, MS_32},  // 94ms
    {NOTE_F5, MS_16},  // 187ms
    {NOTE_F2, MS_32},  // 94ms
    {NOTE_D6, MS_16},  // 187ms
    {NOTE_A2, MS_32},  // 94ms
    {NOTE_AS2, MS_32},  // 94ms
    {NOTE_A2, MS_32},  // 94ms
    {NOTE_D6, MS_32},  // 94ms
    {NOTE_C6, MS_32},  // 94ms
    {NOTE_AS5, MS_16},  // 187ms
    {NOTE_AS2, MS_32},  // 94ms
    {NOTE_AS5, MS_32},  // 94ms
    {NOTE_A5, MS_32},  // 94ms
    {NOTE_G5, MS_16},  // 187ms
    {NOTE_D3, MS_32},  // 94ms
    {NOTE_G5, MS_32},  // 94ms
    {NOTE_F5, MS_32},  // 94ms
    {NOTE_DS5, MS_16},  // 187ms
    {NOTE_DS3, MS_32},  // 94ms
    {NOTE_C6, MS_16},  // 187ms
    {NOTE_G3, MS_32},  // 94ms
    {NOTE_A3, MS_32},  // 94ms
    {NOTE_G3, MS_32},  // 94ms
    {NOTE_C6, MS_32},  // 94ms
    {NOTE_AS5, MS_32},  // 94ms
    {NOTE_A5, MS_16},  // 187ms
    {NOTE_A3, MS_32},  // 94ms
    {NOTE_A5, MS_32},  // 94ms
    {NOTE_G5, MS_32},  // 94ms
    {NOTE_FS5, MS_16},  // 187ms
    {NOTE_CS4, MS_32},  // 94ms
    {NOTE_FS5, MS_32},  // 94ms
    {NOTE_E5, MS_32},  // 94ms
    {NOTE_D5, MS_16},  // 187ms
    {NOTE_D4, MS_32},  // 94ms
    {NOTE_AS5, MS_16},  // 187ms
    {NOTE_FS4, MS_32},  // 94ms
    {NOTE_G4, MS_32},  // 94ms
    {NOTE_DS4, MS_32},  // 94ms
    {NOTE_AS5, MS_32},  // 94ms
    {NOTE_A5, MS_32},  // 94ms
    {NOTE_G5, MS_16},  // 187ms
    {NOTE_C4, MS_32},  // 94ms
    {NOTE_G5, MS_32},  // 94ms
    {NOTE_F5, MS_32},  // 94ms
    {NOTE_E5, MS_16},  // 187ms
    {NOTE_F3, MS_32},  // 94ms
    {NOTE_E5, MS_32},  // 94ms
    {NOTE_D5, MS_32},  // 94ms
    {NOTE_CS5, MS_16},  // 187ms
    {NOTE_E4, MS_32},  // 94ms
    {NOTE_A5, MS_16},  // 187ms
    {NOTE_E4, MS_32},  // 94ms
    {NOTE_F5, MS_DQ},  // 562ms
    {NOTE_F4, MS_32},  // 94ms
    {NOTE_AS5, MS_32},  // 94ms
    {NOTE_A5, MS_32},  // 94ms
    {NOTE_A5, MS_16},  // 187ms
    {NOTE_E4, MS_32},  // 94ms
    {NOTE_AS5, MS_32},  // 94ms
    {NOTE_A5, MS_32},  // 94ms
    {NOTE_A5, MS_16},  // 187ms
    {NOTE_F4, MS_32},  // 94ms
    {NOTE_AS5, MS_32},  // 94ms
    {NOTE_A5, MS_32},  // 94ms
    {NOTE_A5, MS_16},  // 187ms
    {NOTE_E4, MS_32},  // 94ms
    {NOTE_A5, MS_16},  // 187ms
    {NOTE_E4, MS_32},  // 94ms
    {NOTE_F5, MS_DQ},  // 562ms
    {NOTE_F4, MS_32},  // 94ms
    {NOTE_AS5, MS_32},  // 94ms
    {NOTE_A5, MS_32},  // 94ms
    {NOTE_A5, MS_16},  // 187ms
    {NOTE_E4, MS_32},  // 94ms
    {NOTE_AS5, MS_32},  // 94ms
    {NOTE_A5, MS_32},  // 94ms
    {NOTE_A5, MS_16},  // 187ms
    {NOTE_F4, MS_32},  // 94ms
    {NOTE_AS5, MS_32},  // 94ms
    {NOTE_A5, MS_32},  // 94ms
    {NOTE_A5, MS_16},  // 187ms
    {NOTE_REST, MS_32},  // 94ms
    {NOTE_A5, MS_16},  // 187ms
    {NOTE_REST, MS_Q},  // 375ms
    {NOTE_AS5, MS_32},  // 94ms
    {NOTE_A5, MS_32},  // 94ms
    {NOTE_A5, MS_16},  // 187ms
    {NOTE_REST, MS_32},  // 94ms
    {NOTE_AS5, MS_32},  // 94ms
    {NOTE_A5, MS_32},  // 94ms
    {NOTE_A5, MS_16},  // 187ms
    {NOTE_REST, MS_32},  // 94ms
    {NOTE_AS5, MS_32},  // 94ms
    {NOTE_A5, MS_32},  // 94ms
    {NOTE_A5, MS_16},  // 187ms
    {NOTE_REST, MS_32},  // 94ms
    {NOTE_A5, MS_16},  // 187ms
    {NOTE_DS5, MS_32},  // 94ms
    {NOTE_DS5, MS_16},  // 187ms
    {NOTE_REST, MS_64},  // 47ms
    {NOTE_C6, MS_32},  // 94ms
    {NOTE_AS5, MS_32},  // 94ms
    {NOTE_AS5, MS_16},  // 187ms
    {NOTE_REST, MS_32},  // 94ms
    {NOTE_C6, MS_32},  // 94ms
    {NOTE_AS5, MS_32},  // 94ms
    {NOTE_AS5, MS_16},  // 187ms
    {NOTE_REST, MS_32},  // 94ms
    {NOTE_C6, MS_32},  // 94ms
    {NOTE_AS5, MS_32},  // 94ms
    {NOTE_AS5, MS_16},  // 187ms
    {NOTE_REST, MS_16},  // 187ms
    {NOTE_AS5, MS_16},  // 187ms
    {NOTE_F5, MS_32},  // 94ms
    {NOTE_F5, MS_16},  // 187ms
    {NOTE_REST, MS_32},  // 94ms
    {NOTE_C6, MS_32},  // 94ms
    {NOTE_B5, MS_32},  // 94ms
    {NOTE_B5, MS_16},  // 187ms
    {NOTE_REST, MS_32},  // 94ms
    {NOTE_C6, MS_32},  // 94ms
    {NOTE_B5, MS_32},  // 94ms
    {NOTE_B5, MS_16},  // 187ms
    {NOTE_REST, MS_32},  // 94ms
    {NOTE_C6, MS_32},  // 94ms
    {NOTE_B5, MS_32},  // 94ms
    {NOTE_B5, MS_16},  // 187ms
    {NOTE_REST, MS_32},  // 94ms
    {NOTE_B5, MS_16},  // 187ms
    {NOTE_F5, MS_32},  // 94ms
    {NOTE_F5, MS_16},  // 187ms
    {NOTE_REST, MS_64},  // 47ms
    {NOTE_D6, MS_32},  // 94ms
    {NOTE_C6, MS_32},  // 94ms
    {NOTE_C6, MS_16},  // 187ms
    {NOTE_REST, MS_32},  // 94ms
    {NOTE_D6, MS_32},  // 94ms
    {NOTE_C6, MS_32},  // 94ms
    {NOTE_C6, MS_16},  // 187ms
    {NOTE_REST, MS_32},  // 94ms
    {NOTE_D6, MS_32},  // 94ms
    {NOTE_C6, MS_32},  // 94ms
    {NOTE_C6, MS_16},  // 187ms
    {NOTE_REST, MS_16},  // 187ms
    {NOTE_C6, MS_16},  // 187ms
    {NOTE_G5, MS_32},  // 94ms
    {NOTE_G5, MS_16},  // 187ms
    {NOTE_REST, MS_32},  // 94ms
    {NOTE_AS5, MS_32},  // 94ms
    {NOTE_A5, MS_32},  // 94ms
    {NOTE_A5, MS_16},  // 187ms
    {NOTE_REST, MS_32},  // 94ms
    {NOTE_AS5, MS_32},  // 94ms
    {NOTE_A5, MS_32},  // 94ms
    {NOTE_A5, MS_16},  // 187ms
    {NOTE_REST, MS_32},  // 94ms
    {NOTE_AS5, MS_32},  // 94ms
    {NOTE_A5, MS_32},  // 94ms
    {NOTE_A5, MS_32},  // 94ms
    {NOTE_REST, MS_16},  // 187ms
    {NOTE_B5, MS_32},  // 94ms
    {NOTE_C6, MS_32},  // 94ms
    {NOTE_C6, MS_32},  // 94ms
    {NOTE_REST, MS_32},  // 94ms
    {NOTE_G5, MS_32},  // 94ms
    {NOTE_FS5, MS_32},  // 94ms
    {NOTE_FS5, MS_16},  // 187ms
    {NOTE_REST, MS_32},  // 94ms
    {NOTE_G5, MS_32},  // 94ms
    {NOTE_FS5, MS_32},  // 94ms
    {NOTE_FS5, MS_16},  // 187ms
    {NOTE_REST, MS_32},  // 94ms
    {NOTE_G5, MS_32},  // 94ms
    {NOTE_FS5, MS_32},  // 94ms
    {NOTE_FS5, MS_32},  // 94ms
    {NOTE_REST, MS_16},  // 187ms
    {NOTE_DS6, MS_32},  // 94ms
    {NOTE_D6, MS_32},  // 94ms
    {NOTE_D6, MS_32},  // 94ms
    {NOTE_REST, MS_16},  // 187ms
    {NOTE_DS5, MS_32},  // 94ms
    {NOTE_D5, MS_32},  // 94ms
    {NOTE_D5, MS_16},  // 187ms
    {NOTE_REST, MS_32},  // 94ms
    {NOTE_DS5, MS_32},  // 94ms
    {NOTE_D5, MS_32},  // 94ms
    {NOTE_D5, MS_16},  // 187ms
    {NOTE_REST, MS_32},  // 94ms
    {NOTE_DS5, MS_32},  // 94ms
    {NOTE_D5, MS_32},  // 94ms
    {NOTE_D5, MS_32},  // 94ms
    {NOTE_REST, MS_32},  // 94ms
    {NOTE_G6, MS_32},  // 94ms
    {NOTE_FS6, MS_32},  // 94ms
    {NOTE_FS6, MS_32},  // 94ms
    {NOTE_REST, MS_16},  // 187ms
    {NOTE_D6, MS_32},  // 94ms
    {NOTE_DS6, MS_32},  // 94ms
    {NOTE_DS6, MS_DQ},  // 562ms
    {NOTE_DS4, MS_16},  // 187ms
    {NOTE_D4, MS_16},  // 187ms
    {NOTE_D4, MS_DQ},  // 562ms
    {NOTE_DS6, MS_32},  // 94ms
    {NOTE_D6, MS_32},  // 94ms
    {NOTE_D6, MS_DQ},  // 562ms
    {NOTE_DS4, MS_16},  // 187ms
    {NOTE_D4, MS_16},  // 187ms
    {NOTE_D4, MS_DQ},  // 562ms
    {NOTE_D6, MS_32},  // 94ms
    {NOTE_CS6, MS_32},  // 94ms
    {NOTE_CS6, MS_DQ},  // 562ms
    {NOTE_DS4, MS_16},  // 187ms
    {NOTE_D4, MS_16},  // 187ms
    {NOTE_D4, MS_DQ},  // 562ms
    {NOTE_CS6, MS_32},  // 94ms
    {NOTE_D6, MS_32},  // 94ms
    {NOTE_D6, MS_DQ},  // 562ms
    {NOTE_DS4, MS_16},  // 187ms
    {NOTE_D4, MS_16},  // 187ms
    {NOTE_D4, MS_DQ},  // 562ms
    {NOTE_B5, MS_32},  // 94ms
    {NOTE_C6, MS_32},  // 94ms
    {NOTE_C6, MS_DQ},  // 562ms
    {NOTE_DS3, MS_16},  // 187ms
    {NOTE_D3, MS_16},  // 187ms
    {NOTE_D3, MS_DQ},  // 562ms
    {NOTE_A5, MS_32},  // 94ms
    {NOTE_AS5, MS_32},  // 94ms
    {NOTE_AS5, MS_DQ},  // 562ms
    {NOTE_DS3, MS_16},  // 187ms
    {NOTE_D3, MS_16},  // 187ms
    {NOTE_D3, MS_DQ},  // 562ms
    {NOTE_GS5, MS_32},  // 94ms
    {NOTE_A5, MS_32},  // 94ms
    {NOTE_A5, MS_16},  // 187ms
    {NOTE_FS5, MS_32},  // 94ms
    {NOTE_G5, MS_32},  // 94ms
    {NOTE_G5, MS_16},  // 187ms
    {NOTE_REST, MS_64},  // 47ms
    {NOTE_CS5, MS_32},  // 94ms
    {NOTE_D5, MS_32},  // 94ms
    {NOTE_D5, MS_16},  // 187ms
    {NOTE_REST, MS_64},  // 47ms
    {NOTE_DS6, MS_32},  // 94ms
    {NOTE_D6, MS_32},  // 94ms
    {NOTE_D6, MS_H},  // 750ms
    {NOTE_A5, MS_16},  // 187ms
    {NOTE_GS5, MS_16},  // 187ms
    {NOTE_G5, MS_H},  // 750ms
    {NOTE_D6, MS_32},  // 94ms
    {NOTE_CS6, MS_32},  // 94ms
    {NOTE_C6, MS_H},  // 750ms
    {NOTE_G5, MS_16},  // 187ms
    {NOTE_FS5, MS_16},  // 187ms
    {NOTE_F5, MS_H},  // 750ms
    {NOTE_C6, MS_32},  // 94ms
    {NOTE_B5, MS_32},  // 94ms
    {NOTE_AS5, MS_H},  // 750ms
    {NOTE_F5, MS_16},  // 187ms
    {NOTE_E5, MS_16},  // 187ms
    {NOTE_E5, MS_H},  // 750ms
    {NOTE_AS5, MS_32},  // 94ms
    {NOTE_A5, MS_32},  // 94ms
    {NOTE_A5, MS_H},  // 750ms
    {NOTE_DS5, MS_16},  // 187ms
    {NOTE_D5, MS_16},  // 187ms
    {NOTE_D5, MS_DQ},  // 562ms
    {NOTE_A5, MS_32},  // 94ms
    {NOTE_GS5, MS_32},  // 94ms
    {NOTE_G5, MS_DH},  // 1125ms
    {NOTE_DS5, MS_16},  // 187ms
    {NOTE_D5, MS_16},  // 187ms
    {NOTE_D5, MS_16},  // 187ms
    {NOTE_REST, MS_64},  // 47ms
    {NOTE_DS5, MS_16},  // 187ms
    {NOTE_D5, MS_32},  // 94ms
    {NOTE_FS5, MS_DQ},  // 562ms
    {NOTE_DS5, MS_16},  // 187ms
    {NOTE_REST, MS_16},  // 187ms
    {NOTE_AS3, MS_32},  // 94ms
    {NOTE_D4, MS_32},  // 94ms
    {NOTE_AS5, MS_16},  // 187ms
    {NOTE_D4, MS_32},  // 94ms
    {NOTE_AS3, MS_32},  // 94ms
    {NOTE_D4, MS_32},  // 94ms
    {NOTE_AS5, MS_32},  // 94ms
    {NOTE_A5, MS_32},  // 94ms
    {NOTE_G5, MS_16},  // 187ms
    {NOTE_D4, MS_32},  // 94ms
    {NOTE_G5, MS_32},  // 94ms
    {NOTE_F5, MS_32},  // 94ms
    {NOTE_DS5, MS_16},  // 187ms
    {NOTE_D4, MS_32},  // 94ms
    {NOTE_DS5, MS_32},  // 94ms
    {NOTE_D5, MS_32},  // 94ms
    {NOTE_C5, MS_16},  // 187ms
    {NOTE_DS4, MS_32},  // 94ms
    {NOTE_C5, MS_16},  // 187ms
    {NOTE_DS4, MS_32},  // 94ms
    {NOTE_A3, MS_32},  // 94ms
    {NOTE_DS4, MS_32},  // 94ms
    {NOTE_D5, MS_32},  // 94ms
    {NOTE_C5, MS_32},  // 94ms
    {NOTE_C5, MS_16},  // 187ms
    {NOTE_DS4, MS_32},  // 94ms
    {NOTE_D5, MS_32},  // 94ms
    {NOTE_C5, MS_32},  // 94ms
    {NOTE_C5, MS_16},  // 187ms
    {NOTE_DS4, MS_32},  // 94ms
    {NOTE_D5, MS_32},  // 94ms
    {NOTE_C5, MS_32},  // 94ms
    {NOTE_C5, MS_16},  // 187ms
    {NOTE_D4, MS_32},  // 94ms
    {NOTE_A5, MS_16},  // 187ms
    {NOTE_D4, MS_32},  // 94ms
    {NOTE_A3, MS_32},  // 94ms
    {NOTE_D4, MS_32},  // 94ms
    {NOTE_A5, MS_32},  // 94ms
    {NOTE_G5, MS_32},  // 94ms
    {NOTE_FS5, MS_16},  // 187ms
    {NOTE_D4, MS_32},  // 94ms
    {NOTE_FS5, MS_32},  // 94ms
    {NOTE_DS5, MS_32},  // 94ms
    {NOTE_D5, MS_16},  // 187ms
    {NOTE_D4, MS_32},  // 94ms
    {NOTE_D5, MS_32},  // 94ms
    {NOTE_C5, MS_32},  // 94ms
    {NOTE_AS4, MS_16},  // 187ms
    {NOTE_D4, MS_32},  // 94ms
    {NOTE_AS4, MS_16},  // 187ms
    {NOTE_D4, MS_32},  // 94ms
    {NOTE_G3, MS_DQ},  // 562ms
    {NOTE_D4, MS_32},  // 94ms
    {NOTE_AS5, MS_32},  // 94ms
    {NOTE_A5, MS_32},  // 94ms
    {NOTE_A5, MS_16},  // 187ms
    {NOTE_A3, MS_32},  // 94ms
    {NOTE_C6, MS_16},  // 187ms
    {NOTE_A3, MS_32},  // 94ms
    {NOTE_FS5, MS_16},  // 187ms
    {NOTE_A3, MS_32},  // 94ms
    {NOTE_A5, MS_16},  // 187ms
    {NOTE_A3, MS_32},  // 94ms
    {NOTE_G5, MS_16},  // 187ms
    {NOTE_AS3, MS_32},  // 94ms
    {NOTE_D5, MS_16},  // 187ms
    {NOTE_AS3, MS_32},  // 94ms
    {NOTE_D3, MS_32},  // 94ms
    {NOTE_AS3, MS_32},  // 94ms
    {NOTE_AS5, MS_32},  // 94ms
    {NOTE_A5, MS_32},  // 94ms
    {NOTE_A5, MS_16},  // 187ms
    {NOTE_A3, MS_32},  // 94ms
    {NOTE_C6, MS_16},  // 187ms
    {NOTE_A3, MS_32},  // 94ms
    {NOTE_FS5, MS_16},  // 187ms
    {NOTE_A3, MS_32},  // 94ms
    {NOTE_A5, MS_16},  // 187ms
    {NOTE_A3, MS_32},  // 94ms
    {NOTE_G5, MS_16},  // 187ms
    {NOTE_AS5, MS_16},  // 187ms
    {NOTE_REST, MS_64},  // 47ms
    {NOTE_A5, MS_32},  // 94ms
    {NOTE_G5, MS_32},  // 94ms
    {NOTE_F5, MS_32},  // 94ms
    {NOTE_DS5, MS_32},  // 94ms
    {NOTE_D5, MS_H},  // 750ms
    {NOTE_FS5, MS_16},  // 187ms
    {NOTE_G5, MS_16},  // 187ms
    {NOTE_A5, MS_16},  // 187ms
    {NOTE_AS5, MS_16},  // 187ms
    {NOTE_C6, MS_32},  // 94ms
    {NOTE_AS5, MS_32},  // 94ms
    {NOTE_A5, MS_16},  // 187ms
    {NOTE_G5, MS_16},  // 187ms
    {NOTE_FS5, MS_16},  // 187ms
    {NOTE_REST, MS_Q},  // 375ms
    {NOTE_CS6, MS_DQ},  // 562ms
    {NOTE_D3, MS_32},  // 94ms
    {NOTE_D3, MS_32},  // 94ms
    {NOTE_D6, MS_16},  // 187ms
    {NOTE_REST, MS_Q},  // 375ms
    {NOTE_CS6, MS_DQ},  // 562ms
    {NOTE_D3, MS_32},  // 94ms
    {NOTE_D3, MS_32},  // 94ms
    {NOTE_D6, MS_16},  // 187ms
    {NOTE_REST, MS_Q},  // 375ms
    {NOTE_CS6, MS_DQ},  // 562ms
    {NOTE_D3, MS_32},  // 94ms
    {NOTE_D3, MS_32},  // 94ms
    {NOTE_D6, MS_16},  // 187ms
    {NOTE_REST, MS_32},  // 94ms
    {NOTE_CS6, MS_16},  // 187ms
    {NOTE_REST, MS_64},  // 47ms
    {NOTE_D6, MS_16},  // 187ms
    {NOTE_REST, MS_32},  // 94ms
    {NOTE_CS6, MS_16},  // 187ms
    {NOTE_REST, MS_64},  // 47ms
    {NOTE_D6, MS_Q},  // 375ms
    {NOTE_REST, MS_16},  // 187ms
    {NOTE_C4, MS_DQ},  // 562ms
    {NOTE_DS5, MS_32},  // 94ms
    {NOTE_D5, MS_32},  // 94ms
    {NOTE_D5, MS_16},  // 187ms
    {NOTE_REST, MS_32},  // 94ms
    {NOTE_DS5, MS_32},  // 94ms
    {NOTE_D5, MS_32},  // 94ms
    {NOTE_D5, MS_16},  // 187ms
    {NOTE_REST, MS_32},  // 94ms
    {NOTE_DS5, MS_32},  // 94ms
    {NOTE_D5, MS_32},  // 94ms
    {NOTE_D5, MS_DH},  // 1125ms
    {NOTE_D4, MS_32},  // 94ms
    {NOTE_AS5, MS_16},  // 187ms
    {NOTE_D4, MS_32},  // 94ms
    {NOTE_AS3, MS_32},  // 94ms
    {NOTE_D4, MS_32},  // 94ms
    {NOTE_AS5, MS_32},  // 94ms
    {NOTE_GS5, MS_32},  // 94ms
    {NOTE_G5, MS_16},  // 187ms
    {NOTE_DS4, MS_32},  // 94ms
    {NOTE_G5, MS_32},  // 94ms
    {NOTE_F5, MS_32},  // 94ms
    {NOTE_DS5, MS_16},  // 187ms
    {NOTE_DS4, MS_32},  // 94ms
    {NOTE_F5, MS_32},  // 94ms
    {NOTE_DS5, MS_32},  // 94ms
    {NOTE_D5, MS_16},  // 187ms
    {NOTE_D4, MS_32},  // 94ms
    {NOTE_D5, MS_16},  // 187ms
    {NOTE_D4, MS_32},  // 94ms
    {NOTE_GS3, MS_32},  // 94ms
    {NOTE_D4, MS_32},  // 94ms
    {NOTE_AS5, MS_32},  // 94ms
    {NOTE_GS5, MS_32},  // 94ms
    {NOTE_GS5, MS_16},  // 187ms
    {NOTE_B3, MS_32},  // 94ms
    {NOTE_AS5, MS_32},  // 94ms
    {NOTE_GS5, MS_32},  // 94ms
    {NOTE_GS5, MS_16},  // 187ms
    {NOTE_B3, MS_32},  // 94ms
    {NOTE_AS5, MS_32},  // 94ms
    {NOTE_GS5, MS_32},  // 94ms
    {NOTE_GS5, MS_16},  // 187ms
    {NOTE_AS3, MS_32},  // 94ms
    {NOTE_AS4, MS_16},  // 187ms
    {NOTE_AS3, MS_32},  // 94ms
    {NOTE_F3, MS_32},  // 94ms
    {NOTE_AS3, MS_32},  // 94ms
    {NOTE_F5, MS_32},  // 94ms
    {NOTE_DS5, MS_32},  // 94ms
    {NOTE_D5, MS_16},  // 187ms
    {NOTE_AS3, MS_32},  // 94ms
    {NOTE_D5, MS_32},  // 94ms
    {NOTE_C5, MS_32},  // 94ms
    {NOTE_AS4, MS_16},  // 187ms
    {NOTE_AS3, MS_32},  // 94ms
    {NOTE_AS4, MS_32},  // 94ms
    {NOTE_GS4, MS_32},  // 94ms
    {NOTE_DS5, MS_H},  // 750ms
    {NOTE_G2, MS_32},  // 94ms
    {NOTE_AS2, MS_32},  // 94ms
    {NOTE_DS3, MS_32},  // 94ms
    {NOTE_G3, MS_32},  // 94ms
    {NOTE_F3, MS_32},  // 94ms
    {NOTE_G3, MS_32},  // 94ms
    {NOTE_DS3, MS_32},  // 94ms
    {NOTE_AS5, MS_H},  // 750ms
    {NOTE_DS3, MS_32},  // 94ms
    {NOTE_F3, MS_32},  // 94ms
    {NOTE_DS3, MS_32},  // 94ms
    {NOTE_D3, MS_32},  // 94ms
    {NOTE_C3, MS_32},  // 94ms
    {NOTE_D3, MS_32},  // 94ms
    {NOTE_AS5, MS_32},  // 94ms
    {NOTE_GS5, MS_16},  // 187ms
    {NOTE_DS3, MS_32},  // 94ms
    {NOTE_C6, MS_16},  // 187ms
    {NOTE_DS3, MS_32},  // 94ms
    {NOTE_DS6, MS_16},  // 187ms
    {NOTE_DS3, MS_32},  // 94ms
    {NOTE_C3, MS_32},  // 94ms
    {NOTE_DS3, MS_32},  // 94ms
    {NOTE_G5, MS_H},  // 750ms
    {NOTE_DS3, MS_32},  // 94ms
    {NOTE_AS5, MS_16},  // 187ms
    {NOTE_DS3, MS_32},  // 94ms
    {NOTE_DS6, MS_16},  // 187ms
    {NOTE_DS3, MS_32},  // 94ms
    {NOTE_AS2, MS_32},  // 94ms
    {NOTE_G5, MS_32},  // 94ms
    {NOTE_F5, MS_16},  // 187ms
    {NOTE_C3, MS_32},  // 94ms
    {NOTE_GS5, MS_16},  // 187ms
    {NOTE_C3, MS_32},  // 94ms
    {NOTE_C6, MS_16},  // 187ms
    {NOTE_C3, MS_32},  // 94ms
    {NOTE_F5, MS_16},  // 187ms
    {NOTE_C3, MS_32},  // 94ms
    {NOTE_E5, MS_16},  // 187ms
    {NOTE_AS2, MS_32},  // 94ms
    {NOTE_G5, MS_16},  // 187ms
    {NOTE_AS2, MS_32},  // 94ms
    {NOTE_AS5, MS_16},  // 187ms
    {NOTE_GS2, MS_32},  // 94ms
    {NOTE_CS5, MS_16},  // 187ms
    {NOTE_GS2, MS_32},  // 94ms
    {NOTE_C5, MS_DQ},  // 562ms
    {NOTE_G2, MS_32},  // 94ms
    {NOTE_E5, MS_16},  // 187ms
    {NOTE_G2, MS_32},  // 94ms
    {NOTE_G5, MS_16},  // 187ms
    {NOTE_E2, MS_32},  // 94ms
    {NOTE_AS4, MS_16},  // 187ms
    {NOTE_E2, MS_32},  // 94ms
    {NOTE_GS4, MS_32},  // 94ms
    {NOTE_F4, MS_32},  // 94ms
    {NOTE_C5, MS_32},  // 94ms
    {NOTE_GS4, MS_32},  // 94ms
    {NOTE_F5, MS_32},  // 94ms
    {NOTE_C5, MS_32},  // 94ms
    {NOTE_GS5, MS_32},  // 94ms
    {NOTE_F5, MS_32},  // 94ms
    {NOTE_E5, MS_32},  // 94ms
    {NOTE_G5, MS_32},  // 94ms
    {NOTE_C6, MS_32},  // 94ms
    {NOTE_AS5, MS_32},  // 94ms
    {NOTE_GS5, MS_32},  // 94ms
    {NOTE_G5, MS_32},  // 94ms
    {NOTE_F5, MS_32},  // 94ms
    {NOTE_DS5, MS_32},  // 94ms
    {NOTE_CS5, MS_32},  // 94ms
    {NOTE_F5, MS_32},  // 94ms
    {NOTE_AS5, MS_32},  // 94ms
    {NOTE_GS5, MS_32},  // 94ms
    {NOTE_G5, MS_32},  // 94ms
    {NOTE_F5, MS_32},  // 94ms
    {NOTE_DS5, MS_32},  // 94ms
    {NOTE_CS5, MS_32},  // 94ms
    {NOTE_C5, MS_32},  // 94ms
    {NOTE_DS5, MS_32},  // 94ms
    {NOTE_GS5, MS_32},  // 94ms
    {NOTE_G5, MS_32},  // 94ms
    {NOTE_F5, MS_32},  // 94ms
    {NOTE_DS5, MS_32},  // 94ms
    {NOTE_CS5, MS_32},  // 94ms
    {NOTE_C5, MS_32},  // 94ms
    {NOTE_AS4, MS_32},  // 94ms
    {NOTE_CS5, MS_32},  // 94ms
    {NOTE_G5, MS_32},  // 94ms
    {NOTE_F5, MS_32},  // 94ms
    {NOTE_E5, MS_32},  // 94ms
    {NOTE_CS5, MS_32},  // 94ms
    {NOTE_C5, MS_32},  // 94ms
    {NOTE_AS4, MS_32},  // 94ms
    {NOTE_GS4, MS_32},  // 94ms
    {NOTE_F4, MS_32},  // 94ms
    {NOTE_C5, MS_32},  // 94ms
    {NOTE_AS4, MS_32},  // 94ms
    {NOTE_GS4, MS_32},  // 94ms
    {NOTE_G4, MS_32},  // 94ms
    {NOTE_F4, MS_32},  // 94ms
    {NOTE_DS4, MS_32},  // 94ms
    {NOTE_D4, MS_32},  // 94ms
    {NOTE_REST, MS_64},  // 47ms
    {NOTE_AS4, MS_32},  // 94ms
    {NOTE_F5, MS_32},  // 94ms
    {NOTE_DS5, MS_32},  // 94ms
    {NOTE_D5, MS_32},  // 94ms
    {NOTE_C5, MS_32},  // 94ms
    {NOTE_AS4, MS_32},  // 94ms
    {NOTE_GS4, MS_32},  // 94ms
    {NOTE_G4, MS_32},  // 94ms
    {NOTE_DS4, MS_32},  // 94ms
    {NOTE_AS4, MS_32},  // 94ms
    {NOTE_GS4, MS_32},  // 94ms
    {NOTE_G4, MS_32},  // 94ms
    {NOTE_F4, MS_32},  // 94ms
    {NOTE_DS4, MS_32},  // 94ms
    {NOTE_D4, MS_32},  // 94ms
    {NOTE_C4, MS_32},  // 94ms
    {NOTE_GS4, MS_32},  // 94ms
    {NOTE_DS5, MS_32},  // 94ms
    {NOTE_D5, MS_32},  // 94ms
    {NOTE_C5, MS_32},  // 94ms
    {NOTE_AS4, MS_32},  // 94ms
    {NOTE_GS4, MS_32},  // 94ms
    {NOTE_G4, MS_32},  // 94ms
    {NOTE_F4, MS_32},  // 94ms
    {NOTE_A4, MS_32},  // 94ms
    {NOTE_C5, MS_32},  // 94ms
    {NOTE_DS5, MS_32},  // 94ms
    {NOTE_F5, MS_32},  // 94ms
    {NOTE_DS5, MS_32},  // 94ms
    {NOTE_D5, MS_32},  // 94ms
    {NOTE_C5, MS_32},  // 94ms
    {NOTE_B4, MS_32},  // 94ms
    {NOTE_G4, MS_32},  // 94ms
    {NOTE_D5, MS_32},  // 94ms
    {NOTE_C5, MS_32},  // 94ms
    {NOTE_B4, MS_32},  // 94ms
    {NOTE_GS4, MS_32},  // 94ms
    {NOTE_G4, MS_32},  // 94ms
    {NOTE_F4, MS_32},  // 94ms
    {NOTE_DS4, MS_32},  // 94ms
    {NOTE_REST, MS_64},  // 47ms
    {NOTE_C4, MS_32},  // 94ms
    {NOTE_G4, MS_32},  // 94ms
    {NOTE_DS4, MS_32},  // 94ms
    {NOTE_C5, MS_32},  // 94ms
    {NOTE_AS4, MS_32},  // 94ms
    {NOTE_A4, MS_32},  // 94ms
    {NOTE_G4, MS_32},  // 94ms
    {NOTE_FS4, MS_32},  // 94ms
    {NOTE_D4, MS_32},  // 94ms
    {NOTE_A4, MS_32},  // 94ms
    {NOTE_G4, MS_32},  // 94ms
    {NOTE_FS4, MS_32},  // 94ms
    {NOTE_DS4, MS_32},  // 94ms
    {NOTE_D4, MS_32},  // 94ms
    {NOTE_C4, MS_32},  // 94ms
    {NOTE_G4, MS_H},  // 750ms
    {NOTE_AS2, MS_32},  // 94ms
    {NOTE_G2, MS_32},  // 94ms
    {NOTE_AS2, MS_32},  // 94ms
    {NOTE_G2, MS_32},  // 94ms
    {NOTE_AS2, MS_32},  // 94ms
    {NOTE_G2, MS_32},  // 94ms
    {NOTE_AS2, MS_32},  // 94ms
    {NOTE_D5, MS_H},  // 750ms
    {NOTE_A2, MS_32},  // 94ms
    {NOTE_F2, MS_32},  // 94ms
    {NOTE_A2, MS_32},  // 94ms
    {NOTE_F2, MS_32},  // 94ms
    {NOTE_A2, MS_32},  // 94ms
    {NOTE_F2, MS_32},  // 94ms
    {NOTE_D5, MS_32},  // 94ms
    {NOTE_C5, MS_16},  // 187ms
    {NOTE_G3, MS_32},  // 94ms
    {NOTE_DS5, MS_16},  // 187ms
    {NOTE_G3, MS_32},  // 94ms
    {NOTE_G5, MS_16},  // 187ms
    {NOTE_G3, MS_32},  // 94ms
    {NOTE_DS3, MS_32},  // 94ms
    {NOTE_G3, MS_32},  // 94ms
    {NOTE_AS4, MS_16},  // 187ms
    {NOTE_G3, MS_32},  // 94ms
    {NOTE_D5, MS_16},  // 187ms
    {NOTE_G3, MS_32},  // 94ms
    {NOTE_G5, MS_16},  // 187ms
    {NOTE_G3, MS_32},  // 94ms
    {NOTE_D3, MS_32},  // 94ms
    {NOTE_AS5, MS_32},  // 94ms
    {NOTE_A5, MS_16},  // 187ms
    {NOTE_DS3, MS_32},  // 94ms
    {NOTE_C6, MS_16},  // 187ms
    {NOTE_DS3, MS_32},  // 94ms
    {NOTE_DS6, MS_16},  // 187ms
    {NOTE_DS3, MS_32},  // 94ms
    {NOTE_C3, MS_32},  // 94ms
    {NOTE_FS5, MS_32},  // 94ms
    {NOTE_G5, MS_16},  // 187ms
    {NOTE_D3, MS_32},  // 94ms
    {NOTE_AS5, MS_16},  // 187ms
    {NOTE_D3, MS_32},  // 94ms
    {NOTE_D6, MS_16},  // 187ms
    {NOTE_D3, MS_32},  // 94ms
    {NOTE_AS2, MS_32},  // 94ms
    {NOTE_D5, MS_32},  // 94ms
    {NOTE_CS5, MS_32},  // 94ms
    {NOTE_D5, MS_32},  // 94ms
    {NOTE_E5, MS_32},  // 94ms
    {NOTE_F5, MS_32},  // 94ms
    {NOTE_G5, MS_32},  // 94ms
    {NOTE_A5, MS_32},  // 94ms
    {NOTE_AS5, MS_32},  // 94ms
    {NOTE_REST, MS_64},  // 47ms
    {NOTE_D5, MS_32},  // 94ms
    {NOTE_CS5, MS_32},  // 94ms
    {NOTE_D5, MS_32},  // 94ms
    {NOTE_E5, MS_32},  // 94ms
    {NOTE_F5, MS_32},  // 94ms
    {NOTE_G5, MS_32},  // 94ms
    {NOTE_A5, MS_32},  // 94ms
    {NOTE_AS5, MS_32},  // 94ms
    {NOTE_D5, MS_32},  // 94ms
    {NOTE_CS5, MS_32},  // 94ms
    {NOTE_D5, MS_32},  // 94ms
    {NOTE_E5, MS_32},  // 94ms
    {NOTE_F5, MS_32},  // 94ms
    {NOTE_G5, MS_32},  // 94ms
    {NOTE_A5, MS_32},  // 94ms
    {NOTE_AS5, MS_32},  // 94ms
    {NOTE_D5, MS_32},  // 94ms
    {NOTE_CS5, MS_32},  // 94ms
    {NOTE_D5, MS_32},  // 94ms
    {NOTE_E5, MS_32},  // 94ms
    {NOTE_F5, MS_32},  // 94ms
    {NOTE_G5, MS_32},  // 94ms
    {NOTE_A5, MS_32},  // 94ms
    {NOTE_AS5, MS_32},  // 94ms
    {NOTE_CS5, MS_32},  // 94ms
    {NOTE_D5, MS_Q},  // 375ms
    {NOTE_A3, MS_32},  // 94ms
    {NOTE_FS3, MS_32},  // 94ms
    {NOTE_A3, MS_32},  // 94ms
    {NOTE_A5, MS_16},  // 187ms
    {NOTE_C4, MS_32},  // 94ms
    {NOTE_FS5, MS_16},  // 187ms
    {NOTE_C4, MS_32},  // 94ms
    {NOTE_AS5, MS_DQ},  // 562ms
    {NOTE_AS3, MS_32},  // 94ms
    {NOTE_G3, MS_32},  // 94ms
    {NOTE_AS3, MS_32},  // 94ms
    {NOTE_CS5, MS_16},  // 187ms
    {NOTE_CS4, MS_32},  // 94ms
    {NOTE_E5, MS_16},  // 187ms
    {NOTE_CS4, MS_32},  // 94ms
    {NOTE_D5, MS_DQ},  // 562ms
    {NOTE_D4, MS_32},  // 94ms
    {NOTE_A3, MS_32},  // 94ms
    {NOTE_D4, MS_32},  // 94ms
    {NOTE_A5, MS_32},  // 94ms
    {NOTE_FS5, MS_32},  // 94ms
    {NOTE_A5, MS_32},  // 94ms
    {NOTE_FS5, MS_32},  // 94ms
    {NOTE_AS5, MS_32},  // 94ms
    {NOTE_G5, MS_32},  // 94ms
    {NOTE_AS5, MS_32},  // 94ms
    {NOTE_G5, MS_32},  // 94ms
    {NOTE_CS5, MS_32},  // 94ms
    {NOTE_E5, MS_32},  // 94ms
    {NOTE_CS5, MS_32},  // 94ms
    {NOTE_E5, MS_32},  // 94ms
    {NOTE_D5, MS_16},  // 187ms
    {NOTE_REST, MS_Q},  // 375ms
    {NOTE_D6, MS_16},  // 187ms
    {NOTE_REST, MS_W},  // 1500ms
    {NOTE_D5, MS_H},  // 750ms
    {NOTE_CS5, MS_16},  // 187ms
    {NOTE_C6, MS_H},  // 750ms
    {NOTE_REST, MS_32},  // 94ms
    {NOTE_D6, MS_64},  // 47ms
    {NOTE_C6, MS_64},  // 47ms
    {NOTE_REST, MS_64},  // 47ms
    {NOTE_AS5, MS_64},  // 47ms
    {NOTE_A5, MS_64},  // 47ms
    {NOTE_G5, MS_32},  // 94ms
    {NOTE_REST, MS_16},  // 187ms
    {NOTE_G4, MS_16},  // 187ms
    {NOTE_G4, MS_16},  // 187ms
    {NOTE_REST, MS_64},  // 47ms
    {NOTE_A4, MS_16},  // 187ms
    {NOTE_AS4, MS_Q},  // 375ms
    {NOTE_C5, MS_32},  // 94ms
    {NOTE_A4, MS_16},  // 187ms
    {NOTE_REST, MS_Q},  // 375ms
    {NOTE_DS5, MS_H},  // 750ms
    {NOTE_REST, MS_64},  // 47ms
    {NOTE_D5, MS_16},  // 187ms
    {NOTE_REST, MS_64},  // 47ms
    {NOTE_CS5, MS_16},  // 187ms
    {NOTE_C5, MS_16},  // 187ms
    {NOTE_REST, MS_64},  // 47ms
    {NOTE_B4, MS_16},  // 187ms
    {NOTE_AS4, MS_16},  // 187ms
    {NOTE_REST, MS_64},  // 47ms
    {NOTE_A4, MS_16},  // 187ms
    {NOTE_C5, MS_DQ},  // 562ms
    {NOTE_C4, MS_16},  // 187ms
    {NOTE_FS4, MS_16},  // 187ms
    {NOTE_G5, MS_32},  // 94ms
    {NOTE_REST, MS_64},  // 47ms
    {NOTE_FS5, MS_32},  // 94ms
    {NOTE_A5, MS_32},  // 94ms
    {NOTE_G5, MS_32},  // 94ms
    {NOTE_AS5, MS_32},  // 94ms
    {NOTE_A5, MS_32},  // 94ms
    {NOTE_C6, MS_32},  // 94ms
    {NOTE_AS5, MS_32},  // 94ms
    {NOTE_D6, MS_H},  // 750ms
    {NOTE_REST, MS_32},  // 94ms
    {NOTE_CS6, MS_16},  // 187ms
    {NOTE_C6, MS_16},  // 187ms
    {NOTE_REST, MS_DQ},  // 562ms
    {NOTE_D5, MS_64},  // 47ms
    {NOTE_REST, MS_64},  // 47ms
    {NOTE_C5, MS_64},  // 47ms
    {NOTE_AS4, MS_64},  // 47ms
    {NOTE_REST, MS_64},  // 47ms
    {NOTE_A4, MS_64},  // 47ms
    {NOTE_G4, MS_32},  // 94ms
    {NOTE_REST, MS_32},  // 94ms
    {NOTE_G5, MS_16},  // 187ms
    {NOTE_REST, MS_64},  // 47ms
    {NOTE_G5, MS_DQ},  // 562ms
    {NOTE_A5, MS_16},  // 187ms
    {NOTE_REST, MS_64},  // 47ms
    {NOTE_AS5, MS_Q},  // 375ms
    {NOTE_C6, MS_32},  // 94ms
    {NOTE_A5, MS_16},  // 187ms
    {NOTE_REST, MS_Q},  // 375ms
    {NOTE_DS6, MS_H},  // 750ms
    {NOTE_REST, MS_64},  // 47ms
    {NOTE_D6, MS_16},  // 187ms
    {NOTE_CS6, MS_16},  // 187ms
    {NOTE_REST, MS_64},  // 47ms
    {NOTE_C6, MS_16},  // 187ms
    {NOTE_B5, MS_16},  // 187ms
    {NOTE_REST, MS_64},  // 47ms
    {NOTE_AS5, MS_16},  // 187ms
    {NOTE_GS5, MS_H},  // 750ms
    {NOTE_F3, MS_32},  // 94ms
    {NOTE_D6, MS_DQ},  // 562ms
    {NOTE_F3, MS_32},  // 94ms
    {NOTE_GS3, MS_32},  // 94ms
    {NOTE_F3, MS_32},  // 94ms
    {NOTE_DS6, MS_16},  // 187ms
    {NOTE_DS3, MS_32},  // 94ms
    {NOTE_GS5, MS_H},  // 750ms
    {NOTE_F3, MS_32},  // 94ms
    {NOTE_D6, MS_DQ},  // 562ms
    {NOTE_F3, MS_32},  // 94ms
    {NOTE_GS3, MS_32},  // 94ms
    {NOTE_F3, MS_32},  // 94ms
    {NOTE_DS6, MS_16},  // 187ms
    {NOTE_DS3, MS_32},  // 94ms
    {NOTE_GS5, MS_H},  // 750ms
    {NOTE_F3, MS_32},  // 94ms
    {NOTE_D6, MS_DQ},  // 562ms
    {NOTE_F3, MS_32},  // 94ms
    {NOTE_GS3, MS_32},  // 94ms
    {NOTE_F3, MS_32},  // 94ms
    {NOTE_DS6, MS_16},  // 187ms
    {NOTE_DS3, MS_32},  // 94ms
    {NOTE_GS5, MS_H},  // 750ms
    {NOTE_F3, MS_32},  // 94ms
    {NOTE_D6, MS_DQ},  // 562ms
    {NOTE_F3, MS_32},  // 94ms
    {NOTE_GS3, MS_32},  // 94ms
    {NOTE_F3, MS_32},  // 94ms
    {NOTE_DS6, MS_16},  // 187ms
    {NOTE_DS3, MS_32},  // 94ms
    {NOTE_D6, MS_32},  // 94ms
    {NOTE_D6, MS_16},  // 187ms
    {NOTE_GS3, MS_16},  // 187ms
    {NOTE_D6, MS_16},  // 187ms
    {NOTE_GS3, MS_16},  // 187ms
    {NOTE_D6, MS_16},  // 187ms
    {NOTE_GS3, MS_16},  // 187ms
    {NOTE_D6, MS_32},  // 94ms
    {NOTE_D6, MS_32},  // 94ms
    {NOTE_D6, MS_16},  // 187ms
    {NOTE_GS3, MS_16},  // 187ms
    {NOTE_D6, MS_16},  // 187ms
    {NOTE_GS3, MS_16},  // 187ms
    {NOTE_D6, MS_16},  // 187ms
    {NOTE_GS3, MS_16},  // 187ms
    {NOTE_D6, MS_32},  // 94ms
    {NOTE_DS6, MS_H},  // 750ms
    {NOTE_DS3, MS_64},  // 47ms
    {NOTE_REST, MS_64},  // 47ms
    {NOTE_FS3, MS_64},  // 47ms
    {NOTE_A3, MS_64},  // 47ms
    {NOTE_REST, MS_64},  // 47ms
    {NOTE_C3, MS_16},  // 187ms
    {NOTE_DS3, MS_64},  // 47ms
    {NOTE_FS3, MS_64},  // 47ms
    {NOTE_REST, MS_64},  // 47ms
    {NOTE_A3, MS_64},  // 47ms
    {NOTE_C3, MS_16},  // 187ms
    {NOTE_DS3, MS_64},  // 47ms
    {NOTE_REST, MS_64},  // 47ms
    {NOTE_FS3, MS_64},  // 47ms
    {NOTE_A3, MS_64},  // 47ms
    {NOTE_A5, MS_64},  // 47ms
    {NOTE_REST, MS_64},  // 47ms
    {NOTE_AS5, MS_64},  // 47ms
    {NOTE_G5, MS_64},  // 47ms
    {NOTE_REST, MS_64},  // 47ms
    {NOTE_A5, MS_64},  // 47ms
    {NOTE_AS5, MS_H},  // 750ms
    {NOTE_F3, MS_64},  // 47ms
    {NOTE_REST, MS_64},  // 47ms
    {NOTE_AS3, MS_64},  // 47ms
    {NOTE_CS4, MS_64},  // 47ms
    {NOTE_CS6, MS_16},  // 187ms
    {NOTE_F3, MS_64},  // 47ms
    {NOTE_AS3, MS_64},  // 47ms
    {NOTE_CS4, MS_64},  // 47ms
    {NOTE_REST, MS_64},  // 47ms
    {NOTE_F6, MS_Q},  // 375ms
    {NOTE_F3, MS_64},  // 47ms
    {NOTE_REST, MS_64},  // 47ms
    {NOTE_AS3, MS_64},  // 47ms
    {NOTE_CS4, MS_64},  // 47ms
    {NOTE_AS5, MS_64},  // 47ms
    {NOTE_REST, MS_64},  // 47ms
    {NOTE_C6, MS_64},  // 47ms
    {NOTE_A5, MS_64},  // 47ms
    {NOTE_AS5, MS_64},  // 47ms
    {NOTE_REST, MS_64},  // 47ms
    {NOTE_F6, MS_DQ},  // 562ms
    {NOTE_F3, MS_64},  // 47ms
    {NOTE_GS3, MS_64},  // 47ms
    {NOTE_REST, MS_64},  // 47ms
    {NOTE_B3, MS_64},  // 47ms
    {NOTE_D3, MS_16},  // 187ms
    {NOTE_F3, MS_64},  // 47ms
    {NOTE_GS3, MS_64},  // 47ms
    {NOTE_B3, MS_64},  // 47ms
    {NOTE_REST, MS_64},  // 47ms
    {NOTE_D6, MS_16},  // 187ms
    {NOTE_F3, MS_64},  // 47ms
    {NOTE_GS3, MS_64},  // 47ms
    {NOTE_REST, MS_64},  // 47ms
    {NOTE_B3, MS_64},  // 47ms
    {NOTE_B5, MS_64},  // 47ms
    {NOTE_C6, MS_64},  // 47ms
    {NOTE_REST, MS_64},  // 47ms
    {NOTE_A5, MS_64},  // 47ms
    {NOTE_B5, MS_64},  // 47ms
    {NOTE_REST, MS_64},  // 47ms
    {NOTE_C6, MS_H},  // 750ms
    {NOTE_G3, MS_64},  // 47ms
    {NOTE_C4, MS_64},  // 47ms
    {NOTE_REST, MS_64},  // 47ms
    {NOTE_DS4, MS_64},  // 47ms
    {NOTE_DS6, MS_16},  // 187ms
    {NOTE_G3, MS_64},  // 47ms
    {NOTE_REST, MS_64},  // 47ms
    {NOTE_C4, MS_64},  // 47ms
    {NOTE_DS4, MS_64},  // 47ms
    {NOTE_G6, MS_Q},  // 375ms
    {NOTE_G3, MS_64},  // 47ms
    {NOTE_C4, MS_64},  // 47ms
    {NOTE_REST, MS_64},  // 47ms
    {NOTE_DS4, MS_64},  // 47ms
    {NOTE_C6, MS_64},  // 47ms
    {NOTE_D6, MS_64},  // 47ms
    {NOTE_REST, MS_64},  // 47ms
    {NOTE_B5, MS_64},  // 47ms
    {NOTE_C6, MS_64},  // 47ms
    {NOTE_G6, MS_DQ},  // 562ms
    {NOTE_G3, MS_64},  // 47ms
    {NOTE_AS3, MS_64},  // 47ms
    {NOTE_E4, MS_64},  // 47ms
    {NOTE_REST, MS_64},  // 47ms
    {NOTE_E3, MS_16},  // 187ms
    {NOTE_G3, MS_64},  // 47ms
    {NOTE_REST, MS_64},  // 47ms
    {NOTE_AS3, MS_64},  // 47ms
    {NOTE_E4, MS_64},  // 47ms
    {NOTE_E6, MS_16},  // 187ms
    {NOTE_G3, MS_64},  // 47ms
    {NOTE_AS3, MS_64},  // 47ms
    {NOTE_E4, MS_64},  // 47ms
    {NOTE_REST, MS_64},  // 47ms
    {NOTE_CS6, MS_16},  // 187ms
    {NOTE_G3, MS_64},  // 47ms
    {NOTE_AS3, MS_64},  // 47ms
    {NOTE_REST, MS_64},  // 47ms
    {NOTE_E4, MS_64},  // 47ms
    {NOTE_D6, MS_H},  // 750ms
    {NOTE_G3, MS_64},  // 47ms
    {NOTE_AS3, MS_64},  // 47ms
    {NOTE_D4, MS_64},  // 47ms
    {NOTE_REST, MS_64},  // 47ms
    {NOTE_D3, MS_16},  // 187ms
    {NOTE_G3, MS_64},  // 47ms
    {NOTE_AS3, MS_64},  // 47ms
    {NOTE_REST, MS_64},  // 47ms
    {NOTE_D4, MS_64},  // 47ms
    {NOTE_D3, MS_16},  // 187ms
    {NOTE_G3, MS_64},  // 47ms
    {NOTE_REST, MS_64},  // 47ms
    {NOTE_AS3, MS_64},  // 47ms
    {NOTE_D4, MS_64},  // 47ms
    {NOTE_REST, MS_64},  // 47ms
    {NOTE_D3, MS_16},  // 187ms
    {NOTE_G3, MS_64},  // 47ms
    {NOTE_C6, MS_64},  // 47ms
    {NOTE_REST, MS_64},  // 47ms
    {NOTE_AS5, MS_64},  // 47ms
    {NOTE_A5, MS_32},  // 94ms
    {NOTE_FS2, MS_64},  // 47ms
    {NOTE_AS5, MS_32},  // 94ms
    {NOTE_A2, MS_64},  // 47ms
    {NOTE_A5, MS_32},  // 94ms
    {NOTE_AS5, MS_64},  // 47ms
    {NOTE_A5, MS_64},  // 47ms
    {NOTE_A2, MS_64},  // 47ms
    {NOTE_AS5, MS_64},  // 47ms
    {NOTE_C3, MS_64},  // 47ms
    {NOTE_A5, MS_64},  // 47ms
    {NOTE_AS5, MS_32},  // 94ms
    {NOTE_A5, MS_32},  // 94ms
    {NOTE_C3, MS_64},  // 47ms
    {NOTE_D2, MS_16},  // 187ms
    {NOTE_FS2, MS_64},  // 47ms
    {NOTE_G5, MS_64},  // 47ms
    {NOTE_A5, MS_64},  // 47ms
    {NOTE_REST, MS_64},  // 47ms
    {NOTE_G5, MS_32},  // 94ms
    {NOTE_REST, MS_32},  // 94ms
    {NOTE_AS3, MS_Q},  // 375ms
    {NOTE_REST, MS_64},  // 47ms
    {NOTE_AS3, MS_32},  // 94ms
    {NOTE_C4, MS_32},  // 94ms
    {NOTE_REST, MS_64},  // 47ms
    {NOTE_C4, MS_32},  // 94ms
    {NOTE_CS4, MS_32},  // 94ms
    {NOTE_CS4, MS_32},  // 94ms
    {NOTE_D4, MS_32},  // 94ms
    {NOTE_REST, MS_64},  // 47ms
    {NOTE_D4, MS_32},  // 94ms
    {NOTE_DS4, MS_32},  // 94ms
    {NOTE_DS4, MS_32},  // 94ms
    {NOTE_E4, MS_32},  // 94ms
    {NOTE_REST, MS_64},  // 47ms
    {NOTE_E4, MS_32},  // 94ms
    {NOTE_D5, MS_16},  // 187ms
    {NOTE_REST, MS_16},  // 187ms
    {NOTE_F3, MS_64},  // 47ms
    {NOTE_DS5, MS_16},  // 187ms
    {NOTE_REST, MS_16},  // 187ms
    {NOTE_DS3, MS_64},  // 47ms
    {NOTE_A5, MS_16},  // 187ms
    {NOTE_REST, MS_16},  // 187ms
    {NOTE_C4, MS_64},  // 47ms
    {NOTE_AS5, MS_16},  // 187ms
    {NOTE_REST, MS_16},  // 187ms
    {NOTE_AS3, MS_64},  // 47ms
    {NOTE_DS6, MS_H},  // 750ms
    {NOTE_REST, MS_64},  // 47ms
    {NOTE_D6, MS_32},  // 94ms
    {NOTE_C6, MS_32},  // 94ms
    {NOTE_REST, MS_64},  // 47ms
    {NOTE_AS5, MS_32},  // 94ms
    {NOTE_REST, MS_64},  // 47ms
    {NOTE_A5, MS_32},  // 94ms
    {NOTE_REST, MS_64},  // 47ms
    {NOTE_G5, MS_32},  // 94ms
    {NOTE_FS5, MS_32},  // 94ms
    {NOTE_REST, MS_64},  // 47ms
    {NOTE_DS5, MS_32},  // 94ms
    {NOTE_REST, MS_64},  // 47ms
    {NOTE_D5, MS_32},  // 94ms
    {NOTE_REST, MS_64},  // 47ms
    {NOTE_C5, MS_32},  // 94ms
    {NOTE_AS4, MS_32},  // 94ms
    {NOTE_REST, MS_64},  // 47ms
    {NOTE_A4, MS_32},  // 94ms
    {NOTE_REST, MS_64},  // 47ms
    {NOTE_G4, MS_16},  // 187ms
    {NOTE_D3, MS_32},  // 94ms
    {NOTE_AS3, MS_32},  // 94ms
    {NOTE_D3, MS_32},  // 94ms
    {NOTE_G5, MS_DH},  // 1125ms
    {NOTE_D3, MS_32},  // 94ms
    {NOTE_DS5, MS_32},  // 94ms
    {NOTE_D5, MS_32},  // 94ms
    {NOTE_D5, MS_16},  // 187ms
    {NOTE_D3, MS_32},  // 94ms
    {NOTE_DS5, MS_16},  // 187ms
    {NOTE_D5, MS_32},  // 94ms
    {NOTE_FS5, MS_32},  // 94ms
    {NOTE_REST, MS_64},  // 47ms
    {NOTE_D3, MS_32},  // 94ms
    {NOTE_DS5, MS_32},  // 94ms
    {NOTE_D5, MS_32},  // 94ms
    {NOTE_D5, MS_16},  // 187ms
    {NOTE_D3, MS_32},  // 94ms
    {NOTE_DS5, MS_32},  // 94ms
    {NOTE_D5, MS_32},  // 94ms
    {NOTE_G5, MS_DH},  // 1125ms
    {NOTE_D3, MS_32},  // 94ms
    {NOTE_DS5, MS_32},  // 94ms
    {NOTE_D5, MS_32},  // 94ms
    {NOTE_D5, MS_16},  // 187ms
    {NOTE_D3, MS_32},  // 94ms
    {NOTE_DS5, MS_16},  // 187ms
    {NOTE_D5, MS_32},  // 94ms
    {NOTE_FS5, MS_32},  // 94ms
    {NOTE_REST, MS_64},  // 47ms
    {NOTE_D3, MS_32},  // 94ms
    {NOTE_DS5, MS_32},  // 94ms
    {NOTE_D5, MS_32},  // 94ms
    {NOTE_D5, MS_16},  // 187ms
    {NOTE_D3, MS_16},  // 187ms
    {NOTE_DS5, MS_32},  // 94ms
    {NOTE_D5, MS_32},  // 94ms
    {NOTE_D5, MS_32},  // 94ms
    {NOTE_D3, MS_32},  // 94ms
    {NOTE_GS5, MS_32},  // 94ms
    {NOTE_G5, MS_32},  // 94ms
    {NOTE_G5, MS_16},  // 187ms
    {NOTE_G2, MS_32},  // 94ms
    {NOTE_GS5, MS_32},  // 94ms
    {NOTE_G5, MS_32},  // 94ms
    {NOTE_G5, MS_16},  // 187ms
    {NOTE_G2, MS_32},  // 94ms
    {NOTE_GS5, MS_32},  // 94ms
    {NOTE_G5, MS_32},  // 94ms
    {NOTE_G5, MS_Q},  // 375ms
    {NOTE_G3, MS_32},  // 94ms
    {NOTE_DS3, MS_32},  // 94ms
    {NOTE_G3, MS_32},  // 94ms
    {NOTE_DS6, MS_Q},  // 375ms
    {NOTE_C4, MS_32},  // 94ms
    {NOTE_G3, MS_32},  // 94ms
    {NOTE_C6, MS_32},  // 94ms
    {NOTE_AS5, MS_Q},  // 375ms
    {NOTE_D4, MS_32},  // 94ms
    {NOTE_AS3, MS_32},  // 94ms
    {NOTE_D6, MS_32},  // 94ms
    {NOTE_FS5, MS_Q},  // 375ms
    {NOTE_C4, MS_32},  // 94ms
    {NOTE_A3, MS_32},  // 94ms
    {NOTE_A5, MS_32},  // 94ms
    {NOTE_G5, MS_16},  // 187ms
    {NOTE_REST, MS_64},  // 47ms
    {NOTE_AS3, MS_32},  // 94ms
    {NOTE_D4, MS_32},  // 94ms
    {NOTE_AS3, MS_32},  // 94ms
    {NOTE_D4, MS_32},  // 94ms
    {NOTE_DS4, MS_32},  // 94ms
    {NOTE_D4, MS_32},  // 94ms
    {NOTE_REST, MS_64},  // 47ms
    {NOTE_D4, MS_16},  // 187ms
    {NOTE_C4, MS_16},  // 187ms
    {NOTE_DS4, MS_32},  // 94ms
    {NOTE_D4, MS_32},  // 94ms
    {NOTE_C6, MS_DH},  // 1125ms
    {NOTE_D4, MS_32},  // 94ms
    {NOTE_DS5, MS_32},  // 94ms
    {NOTE_D5, MS_32},  // 94ms
    {NOTE_D5, MS_16},  // 187ms
    {NOTE_D4, MS_32},  // 94ms
    {NOTE_DS5, MS_16},  // 187ms
    {NOTE_D5, MS_32},  // 94ms
    {NOTE_AS5, MS_32},  // 94ms
    {NOTE_REST, MS_32},  // 94ms
    {NOTE_DS4, MS_32},  // 94ms
    {NOTE_D4, MS_32},  // 94ms
    {NOTE_REST, MS_64},  // 47ms
    {NOTE_D4, MS_16},  // 187ms
    {NOTE_C4, MS_16},  // 187ms
    {NOTE_DS4, MS_32},  // 94ms
    {NOTE_D4, MS_32},  // 94ms
    {NOTE_C6, MS_DH},  // 1125ms
    {NOTE_D4, MS_32},  // 94ms
    {NOTE_DS5, MS_32},  // 94ms
    {NOTE_D5, MS_32},  // 94ms
    {NOTE_D5, MS_16},  // 187ms
    {NOTE_D4, MS_32},  // 94ms
    {NOTE_DS5, MS_32},  // 94ms
    {NOTE_D5, MS_32},  // 94ms
    {NOTE_AS5, MS_32},  // 94ms
    {NOTE_REST, MS_64},  // 47ms
    {NOTE_D4, MS_32},  // 94ms
    {NOTE_GS5, MS_32},  // 94ms
    {NOTE_G5, MS_32},  // 94ms
    {NOTE_G5, MS_16},  // 187ms
    {NOTE_F2, MS_32},  // 94ms
    {NOTE_GS5, MS_32},  // 94ms
    {NOTE_G5, MS_32},  // 94ms
    {NOTE_G5, MS_16},  // 187ms
    {NOTE_F2, MS_32},  // 94ms
    {NOTE_GS5, MS_32},  // 94ms
    {NOTE_G5, MS_32},  // 94ms
    {NOTE_G5, MS_Q},  // 375ms
    {NOTE_G3, MS_32},  // 94ms
    {NOTE_DS3, MS_32},  // 94ms
    {NOTE_G3, MS_32},  // 94ms
    {NOTE_DS6, MS_Q},  // 375ms
    {NOTE_C4, MS_32},  // 94ms
    {NOTE_G3, MS_32},  // 94ms
    {NOTE_C6, MS_32},  // 94ms
    {NOTE_REST, MS_64},  // 47ms
    {NOTE_AS5, MS_Q},  // 375ms
    {NOTE_D4, MS_32},  // 94ms
    {NOTE_AS3, MS_32},  // 94ms
    {NOTE_G5, MS_32},  // 94ms
    {NOTE_REST, MS_64},  // 47ms
    {NOTE_D6, MS_Q},  // 375ms
    {NOTE_D4, MS_32},  // 94ms
    {NOTE_C4, MS_32},  // 94ms
    {NOTE_FS5, MS_32},  // 94ms
    {NOTE_REST, MS_64},  // 47ms
    {NOTE_G5, MS_32},  // 94ms
    {NOTE_REST, MS_64},  // 47ms
    {NOTE_D5, MS_32},  // 94ms
    {NOTE_AS5, MS_32},  // 94ms
    {NOTE_REST, MS_64},  // 47ms
    {NOTE_A5, MS_32},  // 94ms
    {NOTE_REST, MS_64},  // 47ms
    {NOTE_G5, MS_32},  // 94ms
    {NOTE_F5, MS_32},  // 94ms
    {NOTE_REST, MS_64},  // 47ms
    {NOTE_DS5, MS_32},  // 94ms
    {NOTE_REST, MS_64},  // 47ms
    {NOTE_D5, MS_32},  // 94ms
    {NOTE_REST, MS_64},  // 47ms
    {NOTE_C5, MS_32},  // 94ms
    {NOTE_AS4, MS_32},  // 94ms
    {NOTE_REST, MS_64},  // 47ms
    {NOTE_A4, MS_32},  // 94ms
    {NOTE_REST, MS_64},  // 47ms
    {NOTE_G4, MS_32},  // 94ms
    {NOTE_REST, MS_64},  // 47ms
    {NOTE_FS4, MS_32},  // 94ms
    {NOTE_DS4, MS_32},  // 94ms
    {NOTE_REST, MS_64},  // 47ms
    {NOTE_D4, MS_32},  // 94ms
    {NOTE_REST, MS_64},  // 47ms
    {NOTE_C4, MS_32},  // 94ms
    {NOTE_AS3, MS_32},  // 94ms
    {NOTE_REST, MS_16},  // 187ms
    {NOTE_D6, MS_16},  // 187ms
    {NOTE_REST, MS_32},  // 94ms
    {NOTE_DS6, MS_16},  // 187ms
    {NOTE_REST, MS_32},  // 94ms
    {NOTE_FS5, MS_16},  // 187ms
    {NOTE_REST, MS_32},  // 94ms
    {NOTE_G5, MS_32},  // 94ms
    {NOTE_D5, MS_32},  // 94ms
    {NOTE_REST, MS_64},  // 47ms
    {NOTE_AS5, MS_32},  // 94ms
    {NOTE_A5, MS_32},  // 94ms
    {NOTE_REST, MS_64},  // 47ms
    {NOTE_G5, MS_32},  // 94ms
    {NOTE_REST, MS_64},  // 47ms
    {NOTE_F5, MS_32},  // 94ms
    {NOTE_REST, MS_64},  // 47ms
    {NOTE_DS5, MS_32},  // 94ms
    {NOTE_D5, MS_32},  // 94ms
    {NOTE_REST, MS_64},  // 47ms
    {NOTE_CS5, MS_32},  // 94ms
    {NOTE_REST, MS_64},  // 47ms
    {NOTE_E5, MS_32},  // 94ms
    {NOTE_REST, MS_64},  // 47ms
    {NOTE_A5, MS_32},  // 94ms
    {NOTE_G5, MS_32},  // 94ms
    {NOTE_REST, MS_64},  // 47ms
    {NOTE_FS5, MS_32},  // 94ms
    {NOTE_REST, MS_64},  // 47ms
    {NOTE_DS5, MS_32},  // 94ms
    {NOTE_D5, MS_32},  // 94ms
    {NOTE_REST, MS_64},  // 47ms
    {NOTE_C5, MS_32},  // 94ms
    {NOTE_REST, MS_64},  // 47ms
    {NOTE_AS4, MS_32},  // 94ms
    {NOTE_REST, MS_16},  // 187ms
    {NOTE_G5, MS_DQ},  // 562ms
    {NOTE_G3, MS_64},  // 47ms
    {NOTE_REST, MS_64},  // 47ms
    {NOTE_G3, MS_16},  // 187ms
    {NOTE_GS5, MS_DQ},  // 562ms
    {NOTE_GS3, MS_64},  // 47ms
    {NOTE_REST, MS_64},  // 47ms
    {NOTE_GS3, MS_16},  // 187ms
    {NOTE_A5, MS_DQ},  // 562ms
    {NOTE_A3, MS_64},  // 47ms
    {NOTE_REST, MS_64},  // 47ms
    {NOTE_A3, MS_16},  // 187ms
    {NOTE_AS5, MS_Q},  // 375ms
    {NOTE_AS3, MS_64},  // 47ms
    {NOTE_REST, MS_64},  // 47ms
    {NOTE_AS3, MS_16},  // 187ms
    {NOTE_B5, MS_DQ},  // 562ms
    {NOTE_D4, MS_64},  // 47ms
    {NOTE_D4, MS_16},  // 187ms
    {NOTE_C6, MS_DQ},  // 562ms
    {NOTE_C4, MS_64},  // 47ms
    {NOTE_C4, MS_16},  // 187ms
    {NOTE_CS6, MS_DQ},  // 562ms
    {NOTE_CS4, MS_64},  // 47ms
    {NOTE_CS4, MS_16},  // 187ms
    {NOTE_REST, MS_16},  // 187ms
    {NOTE_D6, MS_64},  // 47ms
    {NOTE_D6, MS_DH},  // 1125ms
    {NOTE_DS5, MS_32},  // 94ms
    {NOTE_D5, MS_32},  // 94ms
    {NOTE_FS5, MS_H},  // 750ms
    {NOTE_DS5, MS_32},  // 94ms
    {NOTE_D5, MS_32},  // 94ms
    {NOTE_D5, MS_16},  // 187ms
    {NOTE_DS5, MS_32},  // 94ms
    {NOTE_REST, MS_16},  // 187ms
    {NOTE_AS4, MS_16},  // 187ms
    {NOTE_G5, MS_DQ},  // 562ms
    {NOTE_B2, MS_DQ},  // 562ms
    {NOTE_GS5, MS_32},  // 94ms
    {NOTE_G5, MS_32},  // 94ms
    {NOTE_G5, MS_16},  // 187ms
    {NOTE_GS5, MS_32},  // 94ms
    {NOTE_G5, MS_32},  // 94ms
    {NOTE_G5, MS_16},  // 187ms
    {NOTE_GS5, MS_32},  // 94ms
    {NOTE_G5, MS_32},  // 94ms
    {NOTE_G5, MS_16},  // 187ms
    {NOTE_REST, MS_64},  // 47ms
    {NOTE_C6, MS_DQ},  // 562ms
    {NOTE_C3, MS_DQ},  // 562ms
    {NOTE_AS5, MS_DQ},  // 562ms
    {NOTE_DS5, MS_32},  // 94ms
    {NOTE_DS5, MS_16},  // 187ms
    {NOTE_REST, MS_64},  // 47ms
    {NOTE_A5, MS_Q},  // 375ms
    {NOTE_DS5, MS_32},  // 94ms
    {NOTE_DS5, MS_16},  // 187ms
    {NOTE_REST, MS_64},  // 47ms
    {NOTE_G5, MS_16},  // 187ms
    {NOTE_DS5, MS_32},  // 94ms
    {NOTE_FS5, MS_H},  // 750ms
    {NOTE_D6, MS_DQ},  // 562ms
    {NOTE_C3, MS_DQ},  // 562ms
    {NOTE_DS6, MS_32},  // 94ms
    {NOTE_REST, MS_16},  // 187ms
    {NOTE_FS3, MS_DH},  // 1125ms
    {NOTE_DS6, MS_32},  // 94ms
    {NOTE_D6, MS_32},  // 94ms
    {NOTE_D6, MS_16},  // 187ms
    {NOTE_DS6, MS_32},  // 94ms
    {NOTE_D6, MS_32},  // 94ms
    {NOTE_D6, MS_32},  // 94ms
    {NOTE_D5, MS_32},  // 94ms
    {NOTE_AS5, MS_32},  // 94ms
    {NOTE_G5, MS_32},  // 94ms
    {NOTE_FS5, MS_32},  // 94ms
    {NOTE_D5, MS_32},  // 94ms
    {NOTE_D6, MS_16},  // 187ms
    {NOTE_FS5, MS_32},  // 94ms
    {NOTE_G5, MS_32},  // 94ms
    {NOTE_D5, MS_32},  // 94ms
    {NOTE_D6, MS_16},  // 187ms
    {NOTE_G5, MS_32},  // 94ms
    {NOTE_FS5, MS_32},  // 94ms
    {NOTE_D5, MS_32},  // 94ms
    {NOTE_D6, MS_16},  // 187ms
    {NOTE_FS5, MS_32},  // 94ms
    {NOTE_G5, MS_32},  // 94ms
    {NOTE_D5, MS_32},  // 94ms
    {NOTE_D6, MS_16},  // 187ms
    {NOTE_G5, MS_32},  // 94ms
    {NOTE_FS5, MS_32},  // 94ms
    {NOTE_D5, MS_32},  // 94ms
    {NOTE_D6, MS_16},  // 187ms
    {NOTE_FS5, MS_32},  // 94ms
    {NOTE_G5, MS_32},  // 94ms
    {NOTE_REST, MS_64},  // 47ms
    {NOTE_AS5, MS_32},  // 94ms
    {NOTE_A5, MS_32},  // 94ms
    {NOTE_FS5, MS_32},  // 94ms
    {NOTE_G5, MS_32},  // 94ms
    {NOTE_AS5, MS_32},  // 94ms
    {NOTE_A5, MS_32},  // 94ms
    {NOTE_FS5, MS_32},  // 94ms
    {NOTE_G5, MS_16},  // 187ms
    {NOTE_REST, MS_DH},  // 1125ms
    {NOTE_G5, MS_16},  // 187ms
    {NOTE_REST, MS_Q},  // 375ms
    {NOTE_AS5, MS_16},  // 187ms
    {NOTE_REST, MS_Q},  // 375ms
    {NOTE_G4, MS_DQ},  // 562ms
};

