// Auto-generated from MIDI � do not edit manually
// Song: TetrisThemeA
#pragma once
#include "../notes.h"

static const Step song_tetris___a_theme[] = {
    {NOTE_E6, MS_Q},  // 375ms
    {NOTE_B3, MS_16},  // 187ms
    {NOTE_B5, MS_16},  // 187ms
    {NOTE_C6, MS_16},  // 187ms
    {NOTE_D6, MS_16},  // 187ms
    {NOTE_E6, MS_32},  // 94ms
    {NOTE_D6, MS_32},  // 94ms
    {NOTE_C6, MS_16},  // 187ms
    {NOTE_B5, MS_16},  // 187ms
    {NOTE_A5, MS_Q},  // 375ms
    {NOTE_C4, MS_16},  // 187ms
    {NOTE_A5, MS_16},  // 187ms
    {NOTE_C6, MS_16},  // 187ms
    {NOTE_E6, MS_Q},  // 375ms
    {NOTE_C4, MS_16},  // 187ms
    {NOTE_D6, MS_16},  // 187ms
    {NOTE_C6, MS_16},  // 187ms
    {NOTE_B5, MS_Q},  // 375ms
    {NOTE_B3, MS_16},  // 187ms
    {NOTE_B5, MS_16},  // 187ms
    {NOTE_C6, MS_16},  // 187ms
    {NOTE_D6, MS_Q},  // 375ms
    {NOTE_E4, MS_16},  // 187ms
    {NOTE_E6, MS_Q},  // 375ms
    {NOTE_E4, MS_16},  // 187ms
    {NOTE_C6, MS_16},  // 187ms
    {NOTE_C5, MS_16},  // 187ms
    {NOTE_A5, MS_16},  // 187ms
    {NOTE_E5, MS_16},  // 187ms
    {NOTE_A5, MS_16},  // 187ms
    {NOTE_A5, MS_16},  // 187ms
    {NOTE_A5, MS_32},  // 94ms
    {NOTE_B5, MS_32},  // 94ms
    {NOTE_C6, MS_32},  // 94ms
    {NOTE_D6, MS_32},  // 94ms
    {NOTE_E6, MS_16},  // 187ms
    {NOTE_D6, MS_Q},  // 375ms
    {NOTE_F4, MS_16},  // 187ms
    {NOTE_F6, MS_16},  // 187ms
    {NOTE_A6, MS_Q},  // 375ms
    {NOTE_A2, MS_16},  // 187ms
    {NOTE_G6, MS_16},  // 187ms
    {NOTE_F6, MS_16},  // 187ms
    {NOTE_E6, MS_DQ},  // 562ms
    {NOTE_C4, MS_16},  // 187ms
    {NOTE_C3, MS_16},  // 187ms
    {NOTE_C6, MS_16},  // 187ms
    {NOTE_E6, MS_Q},  // 375ms
    {NOTE_C4, MS_16},  // 187ms
    {NOTE_D6, MS_16},  // 187ms
    {NOTE_C6, MS_16},  // 187ms
    {NOTE_B5, MS_Q},  // 375ms
    {NOTE_B3, MS_16},  // 187ms
    {NOTE_B5, MS_16},  // 187ms
    {NOTE_C6, MS_16},  // 187ms
    {NOTE_D6, MS_Q},  // 375ms
    {NOTE_E3, MS_16},  // 187ms
    {NOTE_E6, MS_Q},  // 375ms
    {NOTE_GS3, MS_16},  // 187ms
    {NOTE_C6, MS_Q},  // 375ms
    {NOTE_A3, MS_16},  // 187ms
    {NOTE_A5, MS_Q},  // 375ms
    {NOTE_C4, MS_16},  // 187ms
    {NOTE_A5, MS_Q},  // 375ms
    {NOTE_E4, MS_16},  // 187ms
    {NOTE_E3, MS_32},  // 94ms
    {NOTE_D3, MS_32},  // 94ms
    {NOTE_C3, MS_32},  // 94ms
    {NOTE_B2, MS_32},  // 94ms
    {NOTE_E7, MS_Q},  // 375ms
    {NOTE_B3, MS_16},  // 187ms
    {NOTE_B6, MS_16},  // 187ms
    {NOTE_C7, MS_16},  // 187ms
    {NOTE_D7, MS_16},  // 187ms
    {NOTE_E7, MS_32},  // 94ms
    {NOTE_D7, MS_32},  // 94ms
    {NOTE_C7, MS_16},  // 187ms
    {NOTE_B6, MS_16},  // 187ms
    {NOTE_A6, MS_Q},  // 375ms
    {NOTE_C4, MS_16},  // 187ms
    {NOTE_A6, MS_16},  // 187ms
    {NOTE_C7, MS_16},  // 187ms
    {NOTE_E7, MS_Q},  // 375ms
    {NOTE_C4, MS_16},  // 187ms
    {NOTE_D7, MS_16},  // 187ms
    {NOTE_C7, MS_16},  // 187ms
    {NOTE_B6, MS_Q},  // 375ms
    {NOTE_B3, MS_16},  // 187ms
    {NOTE_B6, MS_16},  // 187ms
    {NOTE_C7, MS_16},  // 187ms
    {NOTE_D7, MS_Q},  // 375ms
    {NOTE_E4, MS_16},  // 187ms
    {NOTE_E7, MS_Q},  // 375ms
    {NOTE_E4, MS_16},  // 187ms
    {NOTE_C7, MS_Q},  // 375ms
    {NOTE_C4, MS_16},  // 187ms
    {NOTE_A6, MS_Q},  // 375ms
    {NOTE_E4, MS_16},  // 187ms
    {NOTE_A6, MS_Q},  // 375ms
    {NOTE_A4, MS_16},  // 187ms
    {NOTE_A6, MS_32},  // 94ms
    {NOTE_B6, MS_32},  // 94ms
    {NOTE_C7, MS_32},  // 94ms
    {NOTE_D7, MS_32},  // 94ms
    {NOTE_E7, MS_16},  // 187ms
    {NOTE_D7, MS_Q},  // 375ms
    {NOTE_F4, MS_16},  // 187ms
    {NOTE_F7, MS_16},  // 187ms
    {NOTE_A7, MS_Q},  // 375ms
    {NOTE_A2, MS_16},  // 187ms
    {NOTE_G7, MS_16},  // 187ms
    {NOTE_F7, MS_16},  // 187ms
    {NOTE_E7, MS_DQ},  // 562ms
    {NOTE_C4, MS_16},  // 187ms
    {NOTE_C3, MS_16},  // 187ms
    {NOTE_C7, MS_16},  // 187ms
    {NOTE_E7, MS_Q},  // 375ms
    {NOTE_C4, MS_16},  // 187ms
    {NOTE_D7, MS_16},  // 187ms
    {NOTE_C7, MS_16},  // 187ms
    {NOTE_B6, MS_Q},  // 375ms
    {NOTE_B3, MS_16},  // 187ms
    {NOTE_B6, MS_16},  // 187ms
    {NOTE_C7, MS_16},  // 187ms
    {NOTE_D7, MS_Q},  // 375ms
    {NOTE_E3, MS_16},  // 187ms
    {NOTE_E7, MS_Q},  // 375ms
    {NOTE_GS3, MS_16},  // 187ms
    {NOTE_C7, MS_Q},  // 375ms
    {NOTE_A3, MS_16},  // 187ms
    {NOTE_A6, MS_Q},  // 375ms
    {NOTE_C4, MS_16},  // 187ms
    {NOTE_A6, MS_Q},  // 375ms
    {NOTE_E4, MS_16},  // 187ms
    {NOTE_A2, MS_Q},  // 375ms
    {NOTE_E6, MS_32},  // 94ms
    {NOTE_REST, MS_64},  // 47ms
    {NOTE_A5, MS_32},  // 94ms
    {NOTE_A6, MS_32},  // 94ms
    {NOTE_A5, MS_32},  // 94ms
    {NOTE_C6, MS_32},  // 94ms
    {NOTE_A5, MS_32},  // 94ms
    {NOTE_A6, MS_32},  // 94ms
    {NOTE_A5, MS_32},  // 94ms
    {NOTE_E6, MS_32},  // 94ms
    {NOTE_A5, MS_32},  // 94ms
    {NOTE_A6, MS_32},  // 94ms
    {NOTE_A5, MS_32},  // 94ms
    {NOTE_C6, MS_32},  // 94ms
    {NOTE_A5, MS_32},  // 94ms
    {NOTE_A6, MS_32},  // 94ms
    {NOTE_A5, MS_32},  // 94ms
    {NOTE_E6, MS_32},  // 94ms
    {NOTE_REST, MS_64},  // 47ms
    {NOTE_GS5, MS_32},  // 94ms
    {NOTE_GS6, MS_32},  // 94ms
    {NOTE_GS5, MS_32},  // 94ms
    {NOTE_D6, MS_32},  // 94ms
    {NOTE_GS5, MS_32},  // 94ms
    {NOTE_GS6, MS_32},  // 94ms
    {NOTE_GS5, MS_32},  // 94ms
    {NOTE_E6, MS_32},  // 94ms
    {NOTE_GS5, MS_32},  // 94ms
    {NOTE_GS6, MS_32},  // 94ms
    {NOTE_GS5, MS_32},  // 94ms
    {NOTE_B5, MS_32},  // 94ms
    {NOTE_GS5, MS_32},  // 94ms
    {NOTE_GS6, MS_32},  // 94ms
    {NOTE_GS5, MS_32},  // 94ms
    {NOTE_E6, MS_32},  // 94ms
    {NOTE_REST, MS_64},  // 47ms
    {NOTE_A5, MS_32},  // 94ms
    {NOTE_A6, MS_32},  // 94ms
    {NOTE_A5, MS_32},  // 94ms
    {NOTE_C6, MS_32},  // 94ms
    {NOTE_A5, MS_32},  // 94ms
    {NOTE_A6, MS_32},  // 94ms
    {NOTE_A5, MS_32},  // 94ms
    {NOTE_E6, MS_32},  // 94ms
    {NOTE_A5, MS_32},  // 94ms
    {NOTE_A6, MS_32},  // 94ms
    {NOTE_A5, MS_32},  // 94ms
    {NOTE_C6, MS_32},  // 94ms
    {NOTE_A5, MS_32},  // 94ms
    {NOTE_A6, MS_32},  // 94ms
    {NOTE_A5, MS_32},  // 94ms
    {NOTE_E6, MS_32},  // 94ms
    {NOTE_REST, MS_64},  // 47ms
    {NOTE_GS5, MS_32},  // 94ms
    {NOTE_GS6, MS_32},  // 94ms
    {NOTE_GS5, MS_32},  // 94ms
    {NOTE_D6, MS_32},  // 94ms
    {NOTE_GS5, MS_32},  // 94ms
    {NOTE_GS6, MS_32},  // 94ms
    {NOTE_GS5, MS_32},  // 94ms
    {NOTE_E6, MS_32},  // 94ms
    {NOTE_GS5, MS_32},  // 94ms
    {NOTE_GS6, MS_32},  // 94ms
    {NOTE_GS6, MS_32},  // 94ms
    {NOTE_GS7, MS_32},  // 94ms
    {NOTE_GS6, MS_32},  // 94ms
    {NOTE_GS6, MS_32},  // 94ms
    {NOTE_GS5, MS_32},  // 94ms
    {NOTE_E6, MS_32},  // 94ms
    {NOTE_REST, MS_64},  // 47ms
    {NOTE_A5, MS_32},  // 94ms
    {NOTE_A6, MS_32},  // 94ms
    {NOTE_A5, MS_32},  // 94ms
    {NOTE_C6, MS_32},  // 94ms
    {NOTE_A5, MS_32},  // 94ms
    {NOTE_A6, MS_32},  // 94ms
    {NOTE_A5, MS_32},  // 94ms
    {NOTE_E6, MS_32},  // 94ms
    {NOTE_A5, MS_32},  // 94ms
    {NOTE_A6, MS_32},  // 94ms
    {NOTE_A5, MS_32},  // 94ms
    {NOTE_C6, MS_32},  // 94ms
    {NOTE_A5, MS_32},  // 94ms
    {NOTE_A6, MS_32},  // 94ms
    {NOTE_A5, MS_32},  // 94ms
    {NOTE_E6, MS_32},  // 94ms
    {NOTE_REST, MS_64},  // 47ms
    {NOTE_GS5, MS_32},  // 94ms
    {NOTE_GS6, MS_32},  // 94ms
    {NOTE_GS5, MS_32},  // 94ms
    {NOTE_D6, MS_32},  // 94ms
    {NOTE_GS5, MS_32},  // 94ms
    {NOTE_GS6, MS_32},  // 94ms
    {NOTE_GS5, MS_32},  // 94ms
    {NOTE_E6, MS_32},  // 94ms
    {NOTE_GS5, MS_32},  // 94ms
    {NOTE_GS6, MS_32},  // 94ms
    {NOTE_GS5, MS_32},  // 94ms
    {NOTE_B5, MS_32},  // 94ms
    {NOTE_GS5, MS_32},  // 94ms
    {NOTE_GS6, MS_32},  // 94ms
    {NOTE_GS5, MS_32},  // 94ms
    {NOTE_E6, MS_32},  // 94ms
    {NOTE_REST, MS_64},  // 47ms
    {NOTE_A5, MS_32},  // 94ms
    {NOTE_A6, MS_32},  // 94ms
    {NOTE_A5, MS_32},  // 94ms
    {NOTE_C6, MS_32},  // 94ms
    {NOTE_A5, MS_32},  // 94ms
    {NOTE_A6, MS_32},  // 94ms
    {NOTE_A5, MS_32},  // 94ms
    {NOTE_E6, MS_32},  // 94ms
    {NOTE_A5, MS_32},  // 94ms
    {NOTE_A6, MS_32},  // 94ms
    {NOTE_A5, MS_32},  // 94ms
    {NOTE_C6, MS_32},  // 94ms
    {NOTE_A5, MS_32},  // 94ms
    {NOTE_A6, MS_32},  // 94ms
    {NOTE_A5, MS_32},  // 94ms
    {NOTE_E6, MS_32},  // 94ms
    {NOTE_REST, MS_64},  // 47ms
    {NOTE_GS5, MS_32},  // 94ms
    {NOTE_GS6, MS_32},  // 94ms
    {NOTE_GS5, MS_32},  // 94ms
    {NOTE_B5, MS_32},  // 94ms
    {NOTE_GS5, MS_32},  // 94ms
    {NOTE_GS6, MS_32},  // 94ms
    {NOTE_GS5, MS_32},  // 94ms
    {NOTE_E6, MS_32},  // 94ms
    {NOTE_GS5, MS_32},  // 94ms
    {NOTE_GS6, MS_32},  // 94ms
    {NOTE_GS6, MS_32},  // 94ms
    {NOTE_A7, MS_64},  // 47ms
    {NOTE_G7, MS_64},  // 47ms
    {NOTE_E7, MS_64},  // 47ms
    {NOTE_D7, MS_64},  // 47ms
    {NOTE_C7, MS_64},  // 47ms
    {NOTE_A6, MS_64},  // 47ms
    {NOTE_G6, MS_64},  // 47ms
    {NOTE_F6, MS_64},  // 47ms
    {NOTE_REST, MS_16},  // 187ms
    {NOTE_B3, MS_16},  // 187ms
    {NOTE_B5, MS_16},  // 187ms
    {NOTE_C6, MS_16},  // 187ms
    {NOTE_D6, MS_16},  // 187ms
    {NOTE_E6, MS_32},  // 94ms
    {NOTE_D6, MS_32},  // 94ms
    {NOTE_C6, MS_16},  // 187ms
    {NOTE_B5, MS_16},  // 187ms
    {NOTE_A5, MS_Q},  // 375ms
    {NOTE_C4, MS_16},  // 187ms
    {NOTE_A5, MS_16},  // 187ms
    {NOTE_C6, MS_16},  // 187ms
    {NOTE_E6, MS_Q},  // 375ms
    {NOTE_C4, MS_16},  // 187ms
    {NOTE_D6, MS_16},  // 187ms
    {NOTE_C6, MS_16},  // 187ms
    {NOTE_B5, MS_Q},  // 375ms
    {NOTE_B3, MS_16},  // 187ms
    {NOTE_B5, MS_16},  // 187ms
    {NOTE_C6, MS_16},  // 187ms
    {NOTE_D6, MS_Q},  // 375ms
    {NOTE_E4, MS_16},  // 187ms
    {NOTE_E6, MS_Q},  // 375ms
    {NOTE_E4, MS_16},  // 187ms
    {NOTE_C6, MS_16},  // 187ms
    {NOTE_C5, MS_16},  // 187ms
    {NOTE_A5, MS_16},  // 187ms
    {NOTE_E5, MS_16},  // 187ms
    {NOTE_A5, MS_16},  // 187ms
    {NOTE_A5, MS_16},  // 187ms
    {NOTE_A5, MS_32},  // 94ms
    {NOTE_B5, MS_32},  // 94ms
    {NOTE_C6, MS_32},  // 94ms
    {NOTE_D6, MS_32},  // 94ms
    {NOTE_E6, MS_16},  // 187ms
    {NOTE_D6, MS_Q},  // 375ms
    {NOTE_F4, MS_16},  // 187ms
    {NOTE_F6, MS_16},  // 187ms
    {NOTE_A6, MS_Q},  // 375ms
    {NOTE_A2, MS_16},  // 187ms
    {NOTE_G6, MS_16},  // 187ms
    {NOTE_F6, MS_16},  // 187ms
    {NOTE_E6, MS_DQ},  // 562ms
    {NOTE_C4, MS_16},  // 187ms
    {NOTE_C3, MS_16},  // 187ms
    {NOTE_C6, MS_16},  // 187ms
    {NOTE_E6, MS_Q},  // 375ms
    {NOTE_C4, MS_16},  // 187ms
    {NOTE_D6, MS_16},  // 187ms
    {NOTE_C6, MS_16},  // 187ms
    {NOTE_B5, MS_Q},  // 375ms
    {NOTE_B3, MS_16},  // 187ms
    {NOTE_B5, MS_16},  // 187ms
    {NOTE_C6, MS_16},  // 187ms
    {NOTE_D6, MS_Q},  // 375ms
    {NOTE_E3, MS_16},  // 187ms
    {NOTE_E6, MS_Q},  // 375ms
    {NOTE_GS3, MS_16},  // 187ms
    {NOTE_C6, MS_Q},  // 375ms
    {NOTE_A3, MS_16},  // 187ms
    {NOTE_A5, MS_Q},  // 375ms
    {NOTE_C4, MS_16},  // 187ms
    {NOTE_A5, MS_Q},  // 375ms
    {NOTE_E4, MS_16},  // 187ms
    {NOTE_E3, MS_32},  // 94ms
    {NOTE_D3, MS_32},  // 94ms
    {NOTE_C3, MS_32},  // 94ms
    {NOTE_B2, MS_32},  // 94ms
    {NOTE_E7, MS_Q},  // 375ms
    {NOTE_B3, MS_16},  // 187ms
    {NOTE_B6, MS_16},  // 187ms
    {NOTE_C7, MS_16},  // 187ms
    {NOTE_D7, MS_16},  // 187ms
    {NOTE_E7, MS_32},  // 94ms
    {NOTE_D7, MS_32},  // 94ms
    {NOTE_C7, MS_16},  // 187ms
    {NOTE_B6, MS_16},  // 187ms
    {NOTE_A6, MS_Q},  // 375ms
    {NOTE_C4, MS_16},  // 187ms
    {NOTE_A6, MS_16},  // 187ms
    {NOTE_C7, MS_16},  // 187ms
    {NOTE_E7, MS_Q},  // 375ms
    {NOTE_C4, MS_16},  // 187ms
    {NOTE_D7, MS_16},  // 187ms
    {NOTE_C7, MS_16},  // 187ms
    {NOTE_B6, MS_Q},  // 375ms
    {NOTE_B3, MS_16},  // 187ms
    {NOTE_B6, MS_16},  // 187ms
    {NOTE_C7, MS_16},  // 187ms
    {NOTE_D7, MS_Q},  // 375ms
    {NOTE_E4, MS_16},  // 187ms
    {NOTE_E7, MS_Q},  // 375ms
    {NOTE_E4, MS_16},  // 187ms
    {NOTE_C7, MS_Q},  // 375ms
    {NOTE_C4, MS_16},  // 187ms
    {NOTE_A6, MS_Q},  // 375ms
    {NOTE_E4, MS_16},  // 187ms
    {NOTE_A6, MS_Q},  // 375ms
    {NOTE_A4, MS_16},  // 187ms
    {NOTE_A6, MS_32},  // 94ms
    {NOTE_B6, MS_32},  // 94ms
    {NOTE_C7, MS_32},  // 94ms
    {NOTE_D7, MS_32},  // 94ms
    {NOTE_E7, MS_16},  // 187ms
    {NOTE_D7, MS_Q},  // 375ms
    {NOTE_F4, MS_16},  // 187ms
    {NOTE_F7, MS_16},  // 187ms
    {NOTE_A7, MS_Q},  // 375ms
    {NOTE_A2, MS_16},  // 187ms
    {NOTE_G7, MS_16},  // 187ms
    {NOTE_F7, MS_16},  // 187ms
    {NOTE_E7, MS_DQ},  // 562ms
    {NOTE_C4, MS_16},  // 187ms
    {NOTE_C3, MS_16},  // 187ms
    {NOTE_C7, MS_16},  // 187ms
    {NOTE_E7, MS_Q},  // 375ms
    {NOTE_C4, MS_16},  // 187ms
    {NOTE_D7, MS_16},  // 187ms
    {NOTE_C7, MS_16},  // 187ms
    {NOTE_B6, MS_Q},  // 375ms
    {NOTE_B3, MS_16},  // 187ms
    {NOTE_B6, MS_16},  // 187ms
    {NOTE_C7, MS_16},  // 187ms
    {NOTE_D7, MS_Q},  // 375ms
    {NOTE_E3, MS_16},  // 187ms
    {NOTE_E7, MS_Q},  // 375ms
    {NOTE_GS3, MS_16},  // 187ms
    {NOTE_C7, MS_Q},  // 375ms
    {NOTE_A3, MS_16},  // 187ms
    {NOTE_A6, MS_Q},  // 375ms
    {NOTE_C4, MS_16},  // 187ms
    {NOTE_A6, MS_16},  // 187ms
    {NOTE_E7, MS_64},  // 47ms
    {NOTE_F7, MS_64},  // 47ms
    {NOTE_G7, MS_64},  // 47ms
    {NOTE_A7, MS_Q},  // 375ms
    {NOTE_A5, MS_32},  // 94ms
    {NOTE_C6, MS_32},  // 94ms
    {NOTE_E6, MS_32},  // 94ms
    {NOTE_A6, MS_32},  // 94ms
    {NOTE_C7, MS_32},  // 94ms
    {NOTE_A6, MS_32},  // 94ms
    {NOTE_E6, MS_32},  // 94ms
    {NOTE_C6, MS_32},  // 94ms
    {NOTE_A5, MS_32},  // 94ms
    {NOTE_C6, MS_32},  // 94ms
    {NOTE_E6, MS_32},  // 94ms
    {NOTE_A6, MS_32},  // 94ms
    {NOTE_C7, MS_32},  // 94ms
    {NOTE_A6, MS_32},  // 94ms
    {NOTE_E6, MS_32},  // 94ms
    {NOTE_C6, MS_32},  // 94ms
    {NOTE_GS5, MS_32},  // 94ms
    {NOTE_B5, MS_32},  // 94ms
    {NOTE_D6, MS_32},  // 94ms
    {NOTE_E6, MS_32},  // 94ms
    {NOTE_GS6, MS_32},  // 94ms
    {NOTE_B6, MS_32},  // 94ms
    {NOTE_GS6, MS_32},  // 94ms
    {NOTE_E6, MS_32},  // 94ms
    {NOTE_B5, MS_32},  // 94ms
    {NOTE_GS5, MS_32},  // 94ms
    {NOTE_B5, MS_32},  // 94ms
    {NOTE_E6, MS_32},  // 94ms
    {NOTE_GS6, MS_32},  // 94ms
    {NOTE_B6, MS_32},  // 94ms
    {NOTE_GS6, MS_32},  // 94ms
    {NOTE_E6, MS_32},  // 94ms
    {NOTE_A5, MS_32},  // 94ms
    {NOTE_C6, MS_32},  // 94ms
    {NOTE_E6, MS_32},  // 94ms
    {NOTE_A6, MS_32},  // 94ms
    {NOTE_C7, MS_32},  // 94ms
    {NOTE_A6, MS_32},  // 94ms
    {NOTE_E6, MS_32},  // 94ms
    {NOTE_C6, MS_32},  // 94ms
    {NOTE_A5, MS_32},  // 94ms
    {NOTE_C6, MS_32},  // 94ms
    {NOTE_E6, MS_32},  // 94ms
    {NOTE_A6, MS_32},  // 94ms
    {NOTE_C7, MS_32},  // 94ms
    {NOTE_A6, MS_32},  // 94ms
    {NOTE_E6, MS_32},  // 94ms
    {NOTE_C6, MS_32},  // 94ms
    {NOTE_GS5, MS_32},  // 94ms
    {NOTE_GS4, MS_32},  // 94ms
    {NOTE_GS5, MS_32},  // 94ms
    {NOTE_GS5, MS_32},  // 94ms
    {NOTE_GS6, MS_32},  // 94ms
    {NOTE_GS5, MS_32},  // 94ms
    {NOTE_E6, MS_32},  // 94ms
    {NOTE_E5, MS_32},  // 94ms
    {NOTE_E5, MS_32},  // 94ms
    {NOTE_E4, MS_32},  // 94ms
    {NOTE_E5, MS_32},  // 94ms
    {NOTE_E5, MS_32},  // 94ms
    {NOTE_E6, MS_32},  // 94ms
    {NOTE_E6, MS_32},  // 94ms
    {NOTE_E7, MS_32},  // 94ms
    {NOTE_E6, MS_32},  // 94ms
    {NOTE_A5, MS_32},  // 94ms
    {NOTE_REST, MS_64},  // 47ms
    {NOTE_A4, MS_32},  // 94ms
    {NOTE_A5, MS_32},  // 94ms
    {NOTE_A5, MS_32},  // 94ms
    {NOTE_A6, MS_32},  // 94ms
    {NOTE_A5, MS_32},  // 94ms
    {NOTE_A6, MS_32},  // 94ms
    {NOTE_A6, MS_32},  // 94ms
    {NOTE_A7, MS_32},  // 94ms
    {NOTE_A6, MS_32},  // 94ms
    {NOTE_A6, MS_32},  // 94ms
    {NOTE_A5, MS_32},  // 94ms
    {NOTE_A5, MS_32},  // 94ms
    {NOTE_A4, MS_32},  // 94ms
    {NOTE_A5, MS_32},  // 94ms
    {NOTE_A4, MS_32},  // 94ms
    {NOTE_E5, MS_32},  // 94ms
    {NOTE_E4, MS_32},  // 94ms
    {NOTE_E5, MS_32},  // 94ms
    {NOTE_E5, MS_32},  // 94ms
    {NOTE_E6, MS_32},  // 94ms
    {NOTE_E5, MS_32},  // 94ms
    {NOTE_E6, MS_32},  // 94ms
    {NOTE_E6, MS_32},  // 94ms
    {NOTE_B6, MS_32},  // 94ms
    {NOTE_B5, MS_32},  // 94ms
    {NOTE_B5, MS_32},  // 94ms
    {NOTE_B4, MS_32},  // 94ms
    {NOTE_B5, MS_32},  // 94ms
    {NOTE_E6, MS_32},  // 94ms
    {NOTE_E5, MS_32},  // 94ms
    {NOTE_E6, MS_32},  // 94ms
    {NOTE_A6, MS_32},  // 94ms
    {NOTE_GS6, MS_32},  // 94ms
    {NOTE_A6, MS_32},  // 94ms
    {NOTE_GS6, MS_32},  // 94ms
    {NOTE_A6, MS_32},  // 94ms
    {NOTE_GS6, MS_32},  // 94ms
    {NOTE_A6, MS_32},  // 94ms
    {NOTE_GS6, MS_32},  // 94ms
    {NOTE_A6, MS_32},  // 94ms
    {NOTE_GS6, MS_32},  // 94ms
    {NOTE_A6, MS_32},  // 94ms
    {NOTE_GS6, MS_32},  // 94ms
    {NOTE_A6, MS_32},  // 94ms
    {NOTE_GS6, MS_32},  // 94ms
    {NOTE_A6, MS_32},  // 94ms
    {NOTE_GS6, MS_32},  // 94ms
    {NOTE_A6, MS_32},  // 94ms
    {NOTE_E6, MS_32},  // 94ms
    {NOTE_C6, MS_32},  // 94ms
    {NOTE_A5, MS_32},  // 94ms
    {NOTE_C6, MS_32},  // 94ms
    {NOTE_A5, MS_32},  // 94ms
    {NOTE_C6, MS_32},  // 94ms
    {NOTE_E6, MS_32},  // 94ms
    {NOTE_C6, MS_32},  // 94ms
    {NOTE_A5, MS_32},  // 94ms
    {NOTE_E5, MS_32},  // 94ms
    {NOTE_C5, MS_32},  // 94ms
    {NOTE_E5, MS_32},  // 94ms
    {NOTE_C5, MS_32},  // 94ms
    {NOTE_A4, MS_32},  // 94ms
    {NOTE_REST, MS_32},  // 94ms
    {NOTE_E6, MS_Q},  // 375ms
    {NOTE_B4, MS_32},  // 94ms
    {NOTE_A4, MS_32},  // 94ms
    {NOTE_G4, MS_32},  // 94ms
    {NOTE_B5, MS_16},  // 187ms
    {NOTE_E4, MS_32},  // 94ms
    {NOTE_C6, MS_16},  // 187ms
    {NOTE_C4, MS_32},  // 94ms
    {NOTE_D6, MS_16},  // 187ms
    {NOTE_A3, MS_32},  // 94ms
    {NOTE_E6, MS_32},  // 94ms
    {NOTE_D6, MS_32},  // 94ms
    {NOTE_C6, MS_16},  // 187ms
    {NOTE_D3, MS_32},  // 94ms
    {NOTE_B5, MS_16},  // 187ms
    {NOTE_B2, MS_32},  // 94ms
    {NOTE_A5, MS_16},  // 187ms
    {NOTE_D4, MS_32},  // 94ms
    {NOTE_C5, MS_16},  // 187ms
    {NOTE_B3, MS_32},  // 94ms
    {NOTE_A5, MS_16},  // 187ms
    {NOTE_G3, MS_32},  // 94ms
    {NOTE_C6, MS_16},  // 187ms
    {NOTE_E3, MS_32},  // 94ms
    {NOTE_E6, MS_Q},  // 375ms
    {NOTE_C3, MS_32},  // 94ms
    {NOTE_B2, MS_32},  // 94ms
    {NOTE_A2, MS_32},  // 94ms
    {NOTE_D6, MS_16},  // 187ms
    {NOTE_F2, MS_32},  // 94ms
    {NOTE_C6, MS_16},  // 187ms
    {NOTE_D2, MS_32},  // 94ms
    {NOTE_B5, MS_16},  // 187ms
    {NOTE_A3, MS_32},  // 94ms
    {NOTE_B4, MS_16},  // 187ms
    {NOTE_FS3, MS_32},  // 94ms
    {NOTE_B5, MS_16},  // 187ms
    {NOTE_D3, MS_32},  // 94ms
    {NOTE_C6, MS_16},  // 187ms
    {NOTE_B2, MS_32},  // 94ms
    {NOTE_D6, MS_16},  // 187ms
    {NOTE_G2, MS_32},  // 94ms
    {NOTE_D5, MS_16},  // 187ms
    {NOTE_E2, MS_32},  // 94ms
    {NOTE_E6, MS_16},  // 187ms
    {NOTE_C2, MS_32},  // 94ms
    {NOTE_E5, MS_16},  // 187ms
    {NOTE_A2, MS_32},  // 94ms
    {NOTE_C6, MS_16},  // 187ms
    {NOTE_G3, MS_32},  // 94ms
    {NOTE_A4, MS_16},  // 187ms
    {NOTE_E3, MS_32},  // 94ms
    {NOTE_A5, MS_16},  // 187ms
    {NOTE_C3, MS_32},  // 94ms
    {NOTE_A4, MS_16},  // 187ms
    {NOTE_A2, MS_32},  // 94ms
    {NOTE_A5, MS_16},  // 187ms
    {NOTE_C3, MS_32},  // 94ms
    {NOTE_A4, MS_16},  // 187ms
    {NOTE_E3, MS_32},  // 94ms
    {NOTE_A4, MS_32},  // 94ms
    {NOTE_B4, MS_32},  // 94ms
    {NOTE_C5, MS_32},  // 94ms
    {NOTE_D5, MS_32},  // 94ms
    {NOTE_E5, MS_16},  // 187ms
    {NOTE_D3, MS_32},  // 94ms
    {NOTE_D5, MS_Q},  // 375ms
    {NOTE_B2, MS_32},  // 94ms
    {NOTE_A2, MS_32},  // 94ms
    {NOTE_G2, MS_32},  // 94ms
    {NOTE_F5, MS_16},  // 187ms
    {NOTE_E2, MS_32},  // 94ms
    {NOTE_A5, MS_Q},  // 375ms
    {NOTE_G2, MS_32},  // 94ms
    {NOTE_A2, MS_32},  // 94ms
    {NOTE_B2, MS_32},  // 94ms
    {NOTE_G5, MS_16},  // 187ms
    {NOTE_D3, MS_32},  // 94ms
    {NOTE_F5, MS_16},  // 187ms
    {NOTE_F3, MS_32},  // 94ms
    {NOTE_E5, MS_16},  // 187ms
    {NOTE_A3, MS_32},  // 94ms
    {NOTE_E5, MS_16},  // 187ms
    {NOTE_F3, MS_32},  // 94ms
    {NOTE_A4, MS_16},  // 187ms
    {NOTE_D3, MS_32},  // 94ms
    {NOTE_C5, MS_16},  // 187ms
    {NOTE_B2, MS_32},  // 94ms
    {NOTE_E5, MS_Q},  // 375ms
    {NOTE_B2, MS_32},  // 94ms
    {NOTE_C3, MS_32},  // 94ms
    {NOTE_D3, MS_32},  // 94ms
    {NOTE_D5, MS_16},  // 187ms
    {NOTE_F3, MS_32},  // 94ms
    {NOTE_C5, MS_16},  // 187ms
    {NOTE_A3, MS_32},  // 94ms
    {NOTE_B4, MS_Q},  // 375ms
    {NOTE_FS3, MS_32},  // 94ms
    {NOTE_E3, MS_32},  // 94ms
    {NOTE_D3, MS_32},  // 94ms
    {NOTE_B4, MS_16},  // 187ms
    {NOTE_B2, MS_32},  // 94ms
    {NOTE_C5, MS_16},  // 187ms
    {NOTE_FS2, MS_32},  // 94ms
    {NOTE_D5, MS_Q},  // 375ms
    {NOTE_F2, MS_32},  // 94ms
    {NOTE_G2, MS_32},  // 94ms
    {NOTE_A2, MS_32},  // 94ms
    {NOTE_E5, MS_Q},  // 375ms
    {NOTE_C3, MS_32},  // 94ms
    {NOTE_D3, MS_32},  // 94ms
    {NOTE_E3, MS_32},  // 94ms
    {NOTE_C5, MS_Q},  // 375ms
    {NOTE_G3, MS_32},  // 94ms
    {NOTE_F3, MS_32},  // 94ms
    {NOTE_E3, MS_32},  // 94ms
    {NOTE_A5, MS_Q},  // 375ms
    {NOTE_C3, MS_32},  // 94ms
    {NOTE_B2, MS_32},  // 94ms
    {NOTE_A2, MS_32},  // 94ms
    {NOTE_A5, MS_Q},  // 375ms
    {NOTE_C3, MS_32},  // 94ms
    {NOTE_D3, MS_32},  // 94ms
    {NOTE_E3, MS_32},  // 94ms
    {NOTE_A5, MS_32},  // 94ms
    {NOTE_B5, MS_32},  // 94ms
    {NOTE_C6, MS_32},  // 94ms
    {NOTE_D6, MS_32},  // 94ms
    {NOTE_E6, MS_16},  // 187ms
    {NOTE_D6, MS_16},  // 187ms
    {NOTE_A4, MS_16},  // 187ms
    {NOTE_F6, MS_16},  // 187ms
    {NOTE_A6, MS_Q},  // 375ms
    {NOTE_D3, MS_16},  // 187ms
    {NOTE_G6, MS_16},  // 187ms
    {NOTE_F6, MS_16},  // 187ms
    {NOTE_E6, MS_Q},  // 375ms
    {NOTE_E2, MS_Q},  // 375ms
    {NOTE_E5, MS_16},  // 187ms
    {NOTE_C6, MS_16},  // 187ms
    {NOTE_E6, MS_Q},  // 375ms
    {NOTE_D6, MS_16},  // 187ms
    {NOTE_C6, MS_16},  // 187ms
    {NOTE_B5, MS_Q},  // 375ms
    {NOTE_B5, MS_16},  // 187ms
    {NOTE_C6, MS_16},  // 187ms
    {NOTE_D6, MS_Q},  // 375ms
    {NOTE_E6, MS_Q},  // 375ms
    {NOTE_C6, MS_Q},  // 375ms
    {NOTE_A6, MS_16},  // 187ms
    {NOTE_E7, MS_64},  // 47ms
    {NOTE_F7, MS_64},  // 47ms
    {NOTE_G7, MS_64},  // 47ms
    {NOTE_A7, MS_H},  // 750ms
};

